<svg width="552" height="289" viewBox="0 0 552 289" fill="none" xmlns="http://www.w3.org/2000/svg">
<path d="M547.589 47.5853C547.589 47.5853 540.952 43.5316 533.616 59.3328C526.273 75.134 523.605 84.1871 523.605 84.1871C523.605 84.1871 521.637 87.5175 519.326 85.4668C517.016 83.4241 513.745 77.5026 509.998 78.7267C506.108 79.9905 504.973 84.4335 505.95 90.8637C506.934 97.2939 508.569 111.458 508.712 112.737C508.855 113.993 508.196 115.877 506.402 114.74C504.608 113.596 494.129 102.731 489.278 108.016C484.428 113.302 490.104 130.764 490.683 132.68C491.263 134.595 490.921 135.446 490.016 135.954C489.111 136.471 485.936 132.481 482.832 129.516C479.728 126.544 475.6 123.65 473.059 126.933C470.511 130.216 470.138 143.489 483.499 164.536L490.326 173.884L501.893 172.819C526.511 169.035 536.244 160.022 537.038 155.936C537.832 151.859 532.942 150.659 528.662 150.269C524.383 149.88 519.295 150.11 519.088 149.093C518.882 148.076 519.287 147.257 521.113 146.43C522.939 145.604 539.809 138.395 540.587 131.257C541.365 124.119 526.297 123.372 524.256 122.768C522.216 122.164 523.201 120.431 524.241 119.708C525.296 118.969 537.03 110.885 542.508 107.396C547.986 103.907 550.582 100.123 548.97 96.356C547.422 92.7236 540.817 94.1543 537.76 93.7569C534.704 93.3674 535.911 89.6874 535.911 89.6874C535.911 89.6874 540.96 81.7152 548.017 65.7789C555.067 49.8426 547.454 47.4899 547.454 47.4899" fill="#F5F5F5"/>
<path d="M540.991 61.7246C540.991 61.7246 540.952 61.8438 540.864 62.0664C540.761 62.3048 540.626 62.6307 540.452 63.052C540.071 63.9342 539.523 65.206 538.816 66.8354C537.395 70.118 535.291 74.8552 532.679 80.6892C527.456 92.3732 520.104 108.445 511.928 126.169C503.751 143.902 496.36 159.958 491.072 171.61C488.437 177.428 486.309 182.141 484.824 185.416C484.094 187.029 483.522 188.293 483.126 189.168C482.935 189.581 482.784 189.907 482.673 190.137C482.57 190.352 482.506 190.463 482.506 190.463C482.506 190.463 482.546 190.344 482.633 190.121C482.737 189.883 482.872 189.557 483.046 189.136C483.427 188.254 483.975 186.982 484.682 185.352C486.103 182.07 488.198 177.333 490.818 171.499C496.042 159.815 503.393 143.743 511.57 126.01C519.747 108.286 527.138 92.2302 532.425 80.578C535.061 74.7598 537.189 70.0465 538.673 66.7718C539.404 65.1583 539.983 63.8945 540.38 63.0202C540.571 62.6069 540.722 62.281 540.833 62.0505C540.936 61.8359 540.999 61.7246 540.999 61.7246H540.991Z" fill="#E0E0E0"/>
<path d="M514.238 87.1915C514.238 87.1915 514.381 87.4618 514.563 87.9625C514.754 88.4633 515 89.2025 515.302 90.1165C515.897 91.9446 516.643 94.496 517.421 97.3256C518.175 100.108 518.858 102.627 519.382 104.574C519.62 105.433 519.819 106.164 519.985 106.768C520.128 107.285 520.2 107.579 520.168 107.587C520.144 107.595 520.025 107.325 519.835 106.816C519.652 106.307 519.398 105.576 519.112 104.654C518.541 102.818 517.818 100.259 517.04 97.4289C516.27 94.647 515.572 92.1354 515.032 90.196C514.794 89.3376 514.587 88.6063 514.42 88.0023C514.277 87.4856 514.214 87.1915 514.238 87.1836V87.1915Z" fill="#E0E0E0"/>
<path d="M521.24 107.754C521.208 107.65 526.384 105.862 532.807 103.764C539.229 101.657 544.469 100.044 544.501 100.147C544.532 100.251 539.356 102.039 532.934 104.137C526.511 106.236 521.28 107.857 521.24 107.754Z" fill="#E0E0E0"/>
<path d="M507.45 134.42C507.45 134.42 507.752 134.365 508.299 134.341C508.935 134.317 509.705 134.293 510.618 134.261C512.578 134.19 515.278 134.087 518.255 133.864C521.232 133.649 523.923 133.355 525.868 133.133C526.773 133.029 527.543 132.942 528.17 132.871C528.718 132.815 529.02 132.791 529.02 132.823C529.02 132.847 528.726 132.918 528.186 133.022C527.646 133.125 526.868 133.26 525.892 133.403C523.955 133.697 521.256 134.031 518.271 134.246C515.286 134.468 512.57 134.532 510.61 134.532C509.625 134.532 508.831 134.516 508.284 134.484C507.736 134.46 507.434 134.436 507.434 134.405L507.45 134.42Z" fill="#E0E0E0"/>
<path d="M497.034 117.213C497.034 117.213 497.225 117.42 497.518 117.841C497.804 118.262 498.209 118.866 498.709 119.629C499.702 121.147 501.043 123.262 502.504 125.606C503.965 127.951 505.275 130.089 506.203 131.647C506.672 132.426 507.037 133.062 507.283 133.499C507.529 133.944 507.656 134.191 507.632 134.206C507.609 134.222 507.442 134 507.148 133.579C506.862 133.157 506.457 132.553 505.957 131.79C504.965 130.272 503.623 128.158 502.163 125.805C500.702 123.46 499.392 121.322 498.463 119.764C498.003 118.985 497.629 118.35 497.383 117.912C497.137 117.467 497.01 117.221 497.034 117.205V117.213Z" fill="#E0E0E0"/>
<path d="M481.871 139.197C481.871 139.197 482.109 139.475 482.475 140.008C482.88 140.612 483.396 141.383 484.007 142.297C485.285 144.236 487.024 146.931 488.929 149.927C490.834 152.916 492.541 155.642 493.756 157.621C494.327 158.567 494.804 159.354 495.185 159.974C495.51 160.538 495.685 160.848 495.661 160.864C495.637 160.88 495.423 160.586 495.058 160.054C494.653 159.45 494.137 158.679 493.525 157.764C492.247 155.825 490.509 153.131 488.603 150.134C486.698 147.146 484.991 144.427 483.777 142.448C483.205 141.502 482.729 140.715 482.348 140.095C482.022 139.531 481.847 139.221 481.871 139.205V139.197Z" fill="#E0E0E0"/>
<path d="M495.486 160.251C495.486 160.251 495.867 160.18 496.566 160.132C497.336 160.077 498.32 160.005 499.503 159.926C501.98 159.751 505.41 159.496 509.181 159.107C512.952 158.725 516.357 158.296 518.826 157.962C520.001 157.803 520.986 157.676 521.748 157.581C522.439 157.493 522.82 157.454 522.828 157.485C522.828 157.509 522.454 157.597 521.772 157.732C521.089 157.867 520.097 158.042 518.866 158.241C516.413 158.638 512.999 159.115 509.22 159.496C505.442 159.886 502.004 160.093 499.519 160.196C498.273 160.244 497.273 160.275 496.574 160.275C495.875 160.275 495.494 160.275 495.494 160.244L495.486 160.251Z" fill="#E0E0E0"/>
<path d="M74.8411 125.867C93.3624 113.492 97.8795 90.0761 97.4826 68.9654C97.4191 65.4364 97.8637 61.7325 96.2203 58.6167C94.5691 55.501 90.6473 53.3311 87.4321 54.7618C84.7646 55.9541 83.5659 58.9824 82.0416 61.4781C80.0172 64.8005 77.0402 67.5268 73.5551 69.2436C71.2687 70.3723 68.4504 71.0399 66.2276 69.7841C63.1791 68.0593 62.8774 63.8626 62.9568 60.3574C63.0997 53.8319 63.2426 47.2984 63.3855 40.7728C63.4649 37.2676 63.5284 33.6909 62.4804 30.3526C61.4325 27.0143 59.043 23.8827 55.6848 22.8971C52.3267 21.9115 48.1271 23.7714 47.357 27.1892C47.0395 28.6119 47.3094 30.0982 47.1903 31.5528C47.0713 33.0073 46.3568 34.6049 44.9516 34.9865C43.5305 35.3759 42.1254 34.3585 41.0854 33.3173C37.4812 29.7247 35.0678 25.1306 32.8211 20.5603C30.5665 15.99 28.3913 11.3244 25.1284 7.41382C21.8656 3.5112 17.3166 0.387524 12.2438 0.029851C7.17087 -0.335771 1.71692 2.68458 0.351445 7.58868C-1.01403 12.5087 1.82806 17.5638 4.94007 21.6095C9.55251 27.6104 15.0462 32.9437 21.1749 37.3789C22.2784 38.1817 23.4772 39.048 23.89 40.3516C24.6203 42.6963 22.3498 44.9854 20 45.7166C17.3405 46.5433 14.4825 46.2333 11.7119 46.5115C8.94122 46.7897 5.92448 47.9501 4.8448 50.5174C3.33643 54.0783 6.31348 57.8775 9.25083 60.3813C15.1494 65.3966 21.9053 69.3867 29.1375 72.1288C31.7335 73.1144 34.4644 73.9808 36.5365 75.8248C38.6085 77.6688 39.8311 80.8322 38.5212 83.2803C37.2113 85.7363 33.9405 86.4755 31.2095 85.935C28.4865 85.3945 26.0652 83.8923 23.4772 82.8829C18.6345 80.9912 12.3311 81.2296 9.14763 85.3468C7.05179 88.0493 6.81362 91.8565 7.79803 95.1312C8.78244 98.4059 10.8465 101.243 13.0376 103.866C20.7065 113.039 30.5903 120.478 41.8316 124.516C53.073 128.562 63.5363 129.762 74.8332 125.875" fill="#EBEBEB"/>
<path d="M73.3884 126.28C70.4114 115.59 62.2503 90.4257 57.3917 78.5907C56.1692 75.634 54.9545 72.7169 53.7558 69.8397C52.557 66.9703 51.3741 64.1248 50.0325 61.4145C47.3809 55.9778 44.4197 50.9545 41.4586 46.273C38.4974 41.5835 35.5124 37.2437 32.6862 33.206C29.852 29.1682 27.1449 25.4564 24.5331 22.1817C19.3173 15.6005 14.4905 10.7918 11.045 7.62835C9.32232 6.03869 7.94891 4.84645 7.0042 4.05162C6.54374 3.6701 6.1865 3.36807 5.92452 3.15346C5.67842 2.95475 5.54346 2.85938 5.54346 2.85938C5.54346 2.85938 5.6546 2.9786 5.88483 3.1932C6.13887 3.41576 6.48024 3.73369 6.92481 4.1311C7.84571 4.95772 9.1953 6.16587 10.8942 7.77937C14.2999 10.9905 19.0712 15.823 24.2314 22.4122C26.8194 25.6948 29.5107 29.4146 32.321 33.4603C35.1234 37.506 38.0925 41.8537 41.0378 46.5353C43.9831 51.2168 46.9284 56.2322 49.5641 61.645C50.8899 64.3474 52.0648 67.169 53.2636 70.0463C54.4544 72.9236 55.669 75.8406 56.8916 78.7894C61.7501 90.6165 69.9112 115.749 72.9121 126.408" fill="#E0E0E0"/>
<path d="M49.9058 61.3663C49.9058 61.3663 50.0646 60.8417 50.2551 59.872C50.4457 58.9024 50.6838 57.4955 50.9537 55.7548C51.5015 52.2735 52.089 47.4409 52.732 42.1076C53.3751 36.7743 54.0499 31.9656 54.6691 28.5001C54.9708 26.7674 55.2328 25.3685 55.4312 24.4067C55.6218 23.445 55.7091 22.9045 55.6773 22.8966C55.6456 22.8886 55.4868 23.4132 55.2328 24.367C54.9708 25.3208 54.6532 26.7118 54.3039 28.4365C53.5894 31.894 52.8511 36.7107 52.2081 42.052C51.5809 47.3376 51.0093 52.1225 50.5806 55.7071C50.3663 57.3763 50.1837 58.7672 50.0408 59.8402C49.9138 60.8179 49.8582 61.3584 49.8979 61.3663H49.9058Z" fill="#E0E0E0"/>
<path d="M4.44824 52.2664C4.44824 52.2664 4.60702 52.3141 4.91663 52.3459C5.28975 52.3857 5.73433 52.4254 6.26623 52.481C7.43323 52.5923 9.12419 52.7513 11.2121 53.0136C15.38 53.5064 21.1197 54.4045 27.3993 55.6683C33.6789 56.948 39.3154 58.3469 43.3642 59.4914C45.3886 60.0478 47.0161 60.5406 48.1434 60.8744C48.6594 61.0255 49.0881 61.1526 49.4453 61.256C49.747 61.3354 49.9058 61.3752 49.9137 61.3513C49.9137 61.3354 49.7708 61.2639 49.485 61.1526C49.1357 61.0255 48.715 60.8665 48.2148 60.6757C47.1113 60.2783 45.4918 59.7299 43.4754 59.1258C39.4504 57.8938 33.8138 56.4313 27.5104 55.1437C21.215 53.872 15.4514 53.0374 11.2597 52.6321C9.16389 52.4175 7.46498 52.3141 6.29004 52.2585C5.7502 52.2426 5.30563 52.2346 4.93251 52.2188C4.6229 52.2188 4.45618 52.2188 4.45618 52.2426L4.44824 52.2664Z" fill="#E0E0E0"/>
<path d="M68.9904 111.719C68.9904 111.719 69.1095 111.536 69.3001 111.171C69.5065 110.75 69.7684 110.209 70.0939 109.549C70.7767 108.142 71.7214 106.076 72.8566 103.509C75.1271 98.374 78.0407 91.1967 81.1606 83.2246C84.2806 75.2525 87.1385 68.0592 89.3138 62.8929C90.3934 60.3653 91.2746 58.2908 91.9177 56.7886C92.2035 56.113 92.4416 55.5566 92.6242 55.1274C92.783 54.7459 92.8545 54.5392 92.8386 54.5312C92.8227 54.5312 92.7195 54.7141 92.529 55.0797C92.3226 55.5009 92.0606 56.0414 91.7351 56.7011C91.0524 58.108 90.1076 60.1745 88.9724 62.7418C86.7019 67.8764 83.7884 75.0537 80.6684 83.0259C77.5485 90.9901 74.6905 98.1912 72.5153 103.35C71.4356 105.877 70.5544 107.952 69.9113 109.454C69.6255 110.138 69.3874 110.686 69.2048 111.115C69.046 111.497 68.9746 111.703 68.9904 111.711V111.719Z" fill="#E0E0E0"/>
<path d="M8.71143 91.5225C8.71143 91.5225 8.9099 91.6258 9.31477 91.7689C9.76728 91.9199 10.3468 92.1186 11.0692 92.365C12.657 92.8976 14.8481 93.6288 17.5314 94.519C22.9854 96.3471 30.4875 98.9621 38.7677 101.871C47.0479 104.78 54.5738 107.348 60.0675 109.08C62.8143 109.947 65.0372 110.63 66.5852 111.075C67.3156 111.282 67.911 111.449 68.3715 111.576C68.7843 111.687 68.9986 111.735 69.0066 111.719C69.0066 111.703 68.8081 111.616 68.4032 111.473C67.9507 111.322 67.3712 111.123 66.6488 110.877C65.061 110.344 62.8699 109.613 60.1866 108.723C54.7326 106.895 47.2305 104.28 38.9503 101.37C30.6701 98.4614 23.1442 95.902 17.6584 94.1613C14.9116 93.295 12.6888 92.6114 11.1407 92.1663C10.4103 91.9597 9.81492 91.7928 9.35447 91.6656C8.94165 91.5543 8.7273 91.5066 8.71936 91.5225H8.71143Z" fill="#E0E0E0"/>
<path d="M379.667 3.41602H479.752L460.167 17.3573V28.9936C460.167 40.8763 450.402 50.5097 438.359 50.5097H375.555C363.512 50.5097 353.747 40.8763 353.747 28.9936C353.747 14.8695 365.354 3.42396 379.667 3.42396V3.41602Z" fill="#F5F5F5"/>
<path d="M443.289 18.9703C443.289 19.0816 426.577 19.177 405.968 19.177C385.359 19.177 368.648 19.0816 368.648 18.9703C368.648 18.8591 385.351 18.7637 405.968 18.7637C426.585 18.7637 443.289 18.8591 443.289 18.9703Z" fill="#E0E0E0"/>
<path d="M443.289 26.7125C443.289 26.8238 426.577 26.9192 405.968 26.9192C385.359 26.9192 368.648 26.8238 368.648 26.7125C368.648 26.6012 385.351 26.5059 405.968 26.5059C426.585 26.5059 443.289 26.6012 443.289 26.7125Z" fill="#E0E0E0"/>
<path d="M227.822 241.904H109.391L128.682 255.846V283.267C128.682 286.431 131.247 288.99 134.398 288.99H227.822C230.982 288.99 233.538 286.423 233.538 283.267V247.635C233.538 244.472 230.974 241.912 227.822 241.912V241.904Z" fill="#F5F5F5"/>
<path d="M222.884 261.291C222.884 261.402 205.022 261.497 182.992 261.497C160.961 261.497 143.099 261.402 143.099 261.291C143.099 261.179 160.961 261.084 182.992 261.084C205.022 261.084 222.884 261.179 222.884 261.291Z" fill="#E0E0E0"/>
<path d="M222.884 271.814C222.884 271.925 205.022 272.021 182.992 272.021C160.961 272.021 143.099 271.925 143.099 271.814C143.099 271.703 160.961 271.607 182.992 271.607C205.022 271.607 222.884 271.703 222.884 271.814Z" fill="#E0E0E0"/>
<path d="M469.629 106.768H331.026C314.019 106.768 300.231 120.571 300.231 137.599V250.544C300.231 267.572 314.019 281.376 331.026 281.376H469.629C486.637 281.376 500.424 267.572 500.424 250.544V137.599C500.424 120.571 486.637 106.768 469.629 106.768Z" fill="#E8505B"/>
<g opacity="0.4">
<path d="M469.629 106.768H331.026C314.019 106.768 300.231 120.571 300.231 137.599V250.544C300.231 267.572 314.019 281.376 331.026 281.376H469.629C486.637 281.376 500.424 267.572 500.424 250.544V137.599C500.424 120.571 486.637 106.768 469.629 106.768Z" fill="black"/>
</g>
<path d="M500.369 167.645H530.353L499.694 198.341L500.369 167.645Z" fill="#E8505B"/>
<g opacity="0.4">
<path d="M500.369 167.645H530.353L499.694 198.341L500.369 167.645Z" fill="black"/>
</g>
<path d="M295.437 186.513L282.87 172.238C279.472 168.836 278.305 167.191 278.987 166.594C279.892 165.8 279.503 166.062 286.561 171.371C286.561 171.371 276.558 163.709 280.027 163.662C280.639 163.654 282.338 164.647 284.156 165.839C281.679 163.733 280.996 162.31 281.464 161.635C282.274 160.466 288.395 164.711 291.205 166.761C288.903 165.045 284.513 161.706 283.735 160.665C282.679 159.234 284.822 159.354 286.569 159.95C288.53 160.617 299.366 166.157 302.574 167.588C304.781 168.574 305.559 166.571 305.559 166.571C306.741 161.603 310.314 158.36 311.687 157.939C313.069 157.518 314.109 159.274 313.132 160.538C312.346 161.563 311.552 163.662 311.02 165.259C310.584 166.579 310.354 167.954 310.377 169.337C310.401 170.942 310.489 172.301 310.592 173.454L322.071 189.231L302.859 200.383L295.429 186.505L295.437 186.513Z" fill="#B78876"/>
<path d="M290.919 173.564C290.792 173.747 288.554 172.205 285.934 170.131C283.306 168.056 281.298 166.236 281.448 166.069C281.591 165.902 283.83 167.436 286.434 169.503C289.046 171.569 291.054 173.389 290.919 173.564Z" fill="#AA6550"/>
<path d="M293.373 171.053C293.246 171.236 290.777 169.734 287.855 167.691C284.934 165.656 282.671 163.852 282.798 163.669C282.925 163.487 285.394 164.989 288.316 167.031C291.237 169.066 293.5 170.871 293.373 171.053Z" fill="#AA6550"/>
<path d="M295.151 168.383C295.024 168.566 292.666 167.183 289.879 165.291C287.093 163.4 284.926 161.715 285.053 161.532C285.18 161.349 287.538 162.732 290.332 164.624C293.118 166.515 295.278 168.2 295.159 168.383H295.151Z" fill="#AA6550"/>
<path d="M311.671 175.623L357.462 233.757L346.975 258.198C346.975 258.198 334.416 255.416 330.605 250.115C326.795 244.813 295.437 186.504 295.437 186.504L311.671 175.615V175.623Z" fill="#B78876"/>
<path d="M427.911 94.2715C431.206 97.1329 431.198 102.172 430.817 106.52C430.436 110.868 430.15 115.819 433.151 118.983C435.628 121.59 440.129 122.726 440.708 126.279C440.978 127.933 440.113 129.721 438.636 130.524C437.168 131.334 435.199 131.104 433.945 129.991C434.913 132.797 434.246 136.302 431.817 138.003C429.388 139.704 425.323 138.655 424.569 135.785C425.029 137.685 423.64 139.823 421.719 140.173C419.798 140.523 417.75 139.012 417.503 137.073" fill="#263238"/>
<path d="M380.731 123.616C379.913 125.786 377.15 126.97 375.015 126.08C372.879 125.19 371.784 122.384 372.752 120.278C373.507 118.625 375.293 117.432 375.467 115.62C375.674 113.427 373.443 111.869 371.458 110.915C369.474 109.961 367.163 108.721 366.949 106.527C366.743 104.413 368.632 102.768 370.212 101.353C371.792 99.9383 373.356 97.7525 372.379 95.8608C371.879 94.8991 370.839 94.3427 370.172 93.4843C368.688 91.5926 369.466 88.5802 371.355 87.0939C373.245 85.6075 375.872 85.4009 378.238 85.8301C380.604 86.2593 382.827 87.2369 385.137 87.9205C392.734 90.1857 401.276 89.065 408.032 84.916" fill="#263238"/>
<path d="M394.791 174.875C403.325 176.6 411.668 171.155 413.518 162.635L424.783 110.923C427.745 98.3411 419.75 85.7987 407.112 83.1837L405.929 83.0089C394.028 81.2602 382.787 88.9621 380.096 100.694C377.587 111.607 374.959 123.704 374.166 129.641C372.522 141.93 384.502 145.641 384.502 145.641L382.35 155.998C380.556 164.662 386.137 173.127 394.791 174.883V174.875Z" fill="#B78876"/>
<path d="M382.295 108.802C382.128 109.724 382.763 110.623 383.724 110.821C384.676 111.012 385.589 110.424 385.756 109.51C385.923 108.588 385.288 107.69 384.327 107.491C383.366 107.3 382.461 107.888 382.287 108.81L382.295 108.802Z" fill="#263238"/>
<path d="M381.842 107.085C382.025 107.348 383.494 106.561 385.375 106.839C387.257 107.093 388.503 108.262 388.741 108.063C388.86 107.976 388.694 107.531 388.162 107.006C387.63 106.481 386.685 105.909 385.51 105.742C384.335 105.575 383.287 105.861 382.652 106.227C382.009 106.585 381.755 106.974 381.842 107.093V107.085Z" fill="#263238"/>
<path d="M400.705 111.863C400.538 112.785 401.173 113.683 402.134 113.882C403.086 114.073 403.999 113.484 404.166 112.57C404.333 111.648 403.698 110.75 402.737 110.552C401.777 110.361 400.872 110.949 400.697 111.871L400.705 111.863Z" fill="#263238"/>
<path d="M400.308 110.154C400.49 110.416 401.959 109.629 403.841 109.907C405.722 110.162 406.968 111.33 407.207 111.131C407.318 111.044 407.167 110.599 406.619 110.074C406.087 109.55 405.143 108.977 403.968 108.81C402.793 108.644 401.745 108.93 401.11 109.295C400.467 109.653 400.213 110.042 400.3 110.154H400.308Z" fill="#263238"/>
<path d="M391.424 123.134C391.448 123.031 390.305 122.657 388.447 122.132C387.971 122.013 387.534 121.846 387.503 121.512C387.439 121.147 387.717 120.662 388.035 120.129C388.654 119.033 389.313 117.88 389.995 116.672C392.734 111.744 394.79 107.659 394.592 107.547C394.393 107.436 392.012 111.347 389.273 116.274C388.606 117.491 387.979 118.651 387.368 119.764C387.106 120.28 386.701 120.861 386.844 121.616C386.923 121.997 387.233 122.307 387.534 122.434C387.828 122.577 388.098 122.617 388.336 122.665C390.234 123.046 391.416 123.229 391.432 123.126L391.424 123.134Z" fill="#263238"/>
<path d="M400.896 102.689C401.007 103.23 402.92 103.261 405.095 103.849C407.278 104.398 408.961 105.304 409.326 104.891C409.493 104.692 409.247 104.159 408.604 103.563C407.961 102.959 406.889 102.323 405.587 101.982C404.285 101.64 403.039 101.672 402.182 101.886C401.324 102.093 400.856 102.435 400.903 102.689H400.896Z" fill="#263238"/>
<path d="M383.335 101.728C383.605 102.205 384.962 101.95 386.526 102.157C388.098 102.308 389.368 102.864 389.733 102.467C389.9 102.268 389.749 101.807 389.233 101.322C388.725 100.837 387.82 100.368 386.74 100.241C385.661 100.122 384.676 100.368 384.073 100.726C383.454 101.084 383.216 101.497 383.327 101.728H383.335Z" fill="#263238"/>
<path d="M413.447 95.519C413.447 95.519 413.486 95.5588 413.502 95.5826C415.225 97.4107 416.194 99.8349 416.17 102.347C416.17 102.434 416.17 102.521 416.17 102.601C416.138 106.17 415.527 109.715 415.535 113.291C415.535 116.86 416.225 120.596 418.456 123.378C419.369 124.522 421.147 125.484 422.195 124.451C422.6 124.053 422.743 123.465 422.87 122.909C424.76 114.555 428.157 107.394 429.436 98.5553C429.785 96.1469 428.983 93.7307 427.236 92.0377C425.585 90.4401 423.529 88.7391 421.33 89.4068C419.131 90.0824 415.908 93.5399 414.082 94.9388" fill="#263238"/>
<path d="M419.837 115.867C420.06 115.803 428.626 114.611 427.125 122.957C425.633 131.302 417.567 128.083 417.599 127.837C417.63 127.599 419.837 115.867 419.837 115.867Z" fill="#B78876"/>
<path d="M420.711 125.135C420.75 125.111 420.838 125.262 421.06 125.421C421.282 125.572 421.679 125.723 422.14 125.636C423.077 125.469 424.069 124.205 424.379 122.703C424.537 121.948 424.506 121.193 424.347 120.549C424.204 119.889 423.886 119.397 423.458 119.238C423.037 119.055 422.672 119.269 422.529 119.484C422.378 119.699 422.402 119.873 422.354 119.881C422.33 119.897 422.203 119.707 422.33 119.381C422.394 119.222 422.529 119.039 422.751 118.92C422.981 118.793 423.291 118.761 423.593 118.848C424.228 119.007 424.704 119.707 424.879 120.414C425.093 121.137 425.141 121.98 424.966 122.83C424.609 124.499 423.473 125.922 422.203 126.057C421.592 126.105 421.132 125.843 420.917 125.596C420.695 125.342 420.687 125.151 420.719 125.143L420.711 125.135Z" fill="#AA6550"/>
<path d="M421.417 90.7506C423.974 87.6985 419.028 82.0472 415.082 80.1396C411.137 78.2321 405.397 79.4481 401.078 80.2112C398.355 80.696 395.593 81.5147 392.877 81.006C391.06 80.6642 389.408 79.7343 387.765 78.8759C386.122 78.0095 384.407 77.1749 382.557 77.0319C380.707 76.8888 378.683 77.5882 377.738 79.1858C376.793 80.7835 377.452 83.2554 379.231 83.78C377.095 82.1665 373.499 83.3508 372.737 85.9181C371.975 88.4854 374.348 91.4421 377.016 91.2514C375.96 90.1704 373.912 91.3944 373.84 92.9126C373.769 94.4227 374.96 95.7024 376.238 96.5052C379.509 98.5558 383.653 98.6592 387.447 97.9756C391.242 97.2841 394.87 95.8773 398.649 95.0983C402.428 94.3194 408.771 92.849 412.185 94.6453C414.701 95.9726 416.075 99.4381 417.67 98.9453C419.218 98.4764 420.354 97.0934 420.87 95.5593C421.386 94.0253 421.402 92.38 421.402 90.7586" fill="#263238"/>
<path d="M437.747 129.515C437.747 129.515 437.914 129.491 438.184 129.324C438.454 129.165 438.819 128.84 439.089 128.291C439.343 127.751 439.51 126.988 439.359 126.137C439.224 125.271 438.66 124.396 437.859 123.681C437.049 122.966 436.001 122.409 434.858 121.924C433.723 121.432 432.468 120.995 431.341 120.224C430.214 119.468 429.324 118.292 428.792 116.909C428.245 115.534 428.022 113.976 428.054 112.394C428.142 109.207 429.023 106.235 429.237 103.429C429.499 100.639 429.086 97.9922 427.903 96.172C426.728 94.3519 425.093 93.4537 423.942 93.1914C423.362 93.0404 422.894 93.0483 422.584 93.0563C422.275 93.0881 422.108 93.1119 422.116 93.1278C422.116 93.1835 422.783 93.0324 423.902 93.3504C425.006 93.6524 426.554 94.5585 427.649 96.331C428.753 98.0955 429.134 100.655 428.848 103.397C428.618 106.147 427.721 109.12 427.633 112.387C427.602 114.016 427.832 115.629 428.411 117.068C428.975 118.507 429.928 119.763 431.127 120.549C432.317 121.344 433.595 121.781 434.723 122.25C435.858 122.711 436.882 123.236 437.668 123.904C438.446 124.571 438.978 125.382 439.129 126.177C439.288 126.972 439.161 127.695 438.938 128.22C438.454 129.293 437.692 129.459 437.747 129.507V129.515Z" fill="#455A64"/>
<path d="M378.961 83.589C378.961 83.589 378.842 83.5175 378.595 83.3983C378.476 83.3347 378.318 83.2711 378.127 83.2155C377.936 83.1439 377.714 83.0803 377.46 83.0406C376.452 82.8339 374.753 83.0008 373.253 84.3282C372.236 85.4807 371.577 87.3009 371.752 89.3038C371.887 91.3148 372.983 93.4449 374.817 94.971C376.635 96.5209 379.111 97.4906 381.755 97.7688C384.407 98.0629 387.193 97.7926 389.996 97.2601C394.56 96.3858 398.712 94.6372 402.142 92.5626C403.873 91.5612 405.508 90.5994 407.151 89.9556C408.787 89.2959 410.422 89.0098 411.915 88.978C414.923 88.9223 417.281 89.8205 418.758 90.5994C420.242 91.3942 420.941 92.046 420.973 91.9983C420.973 91.9983 420.322 91.2989 418.837 90.4563C417.368 89.6297 414.987 88.668 411.915 88.6839C410.39 88.6839 408.699 88.97 407.024 89.6297C405.341 90.2735 403.674 91.2353 401.943 92.2288C398.522 94.2715 394.425 95.9884 389.908 96.8468C387.138 97.3714 384.383 97.6337 381.795 97.3634C379.207 97.1011 376.817 96.1712 375.055 94.6928C373.276 93.2303 372.213 91.2114 372.07 89.2879C371.879 87.3645 372.49 85.6158 373.435 84.4951C374.824 83.2234 376.468 83.0088 377.452 83.1678C378.46 83.3267 378.953 83.6288 378.969 83.589H378.961Z" fill="#455A64"/>
<path d="M383.605 76.635C383.605 76.635 383.517 77.3344 383.899 78.5108C384.288 79.6712 385.304 81.2768 387.185 82.469C388.114 83.0731 389.233 83.5818 390.512 83.852C391.782 84.1302 393.187 84.1858 394.632 84.0666C397.545 83.8441 400.602 82.8505 403.801 82.016C406.993 81.1814 410.2 80.7522 412.962 81.4914C415.725 82.1988 417.837 83.8838 419.187 85.5371C420.56 87.2062 421.243 88.8594 421.568 90.0199C421.886 91.1883 421.925 91.8718 421.973 91.8639C421.989 91.8639 421.973 91.697 421.949 91.3711C421.933 91.0452 421.846 90.5763 421.719 89.9802C421.441 88.7879 420.782 87.087 419.409 85.3463C418.051 83.6295 415.908 81.8649 413.05 81.1099C410.192 80.323 406.897 80.7601 403.69 81.6026C400.467 82.4372 397.45 83.4387 394.592 83.6692C393.171 83.7964 391.806 83.7487 390.575 83.4943C389.337 83.2479 388.241 82.7711 387.336 82.2067C385.494 81.0781 384.47 79.5599 384.041 78.4472C383.621 77.3106 383.645 76.6191 383.597 76.627L383.605 76.635Z" fill="#455A64"/>
<path d="M387.661 129.388C387.804 130.198 387.947 131.025 388.305 131.764C388.67 132.503 389.289 133.163 390.083 133.37C390.932 133.592 391.869 133.259 392.496 132.639C393.123 132.027 393.473 131.168 393.616 130.302C393.743 129.515 393.584 128.513 392.83 128.259C392.52 128.156 392.179 128.211 391.853 128.267C390.385 128.529 388.924 128.8 387.455 129.062" fill="#AA6550"/>
<path d="M388.431 132.719C388.495 132.599 389.241 133.227 390.615 133.132C391.281 133.084 392.075 132.822 392.671 132.194C393.258 131.574 393.647 130.612 393.552 129.627C393.536 129.38 393.465 129.142 393.393 128.927C393.29 128.713 393.314 128.728 393.139 128.697C392.964 128.689 392.663 128.728 392.425 128.744C392.178 128.76 391.932 128.784 391.694 128.8C390.742 128.872 389.884 128.927 389.162 128.959C387.717 129.031 386.82 129.023 386.804 128.919C386.788 128.816 387.677 128.641 389.106 128.442C389.821 128.339 390.678 128.236 391.631 128.124C391.869 128.101 392.115 128.069 392.361 128.045C392.623 128.021 392.829 127.973 393.179 127.981C393.345 127.981 393.576 128.029 393.758 128.188C393.941 128.339 394.02 128.522 394.084 128.673C394.187 128.967 394.266 129.253 394.29 129.563C394.409 130.795 393.917 131.948 393.163 132.687C392.393 133.434 391.408 133.68 390.646 133.664C389.868 133.656 389.273 133.41 388.916 133.18C388.558 132.949 388.415 132.758 388.447 132.726L388.431 132.719Z" fill="#263238"/>
<path d="M384.494 145.635C384.494 145.635 392.496 148.671 400.284 146.462C400.284 146.462 394.409 151.389 383.692 149.498L384.494 145.627V145.635Z" fill="#AA6550"/>
<path d="M396.704 259.589C396.704 259.589 396.291 259.311 395.609 258.755C395.267 258.468 394.846 258.127 394.33 257.769C393.822 257.403 393.259 256.958 392.592 256.537C391.933 256.1 391.21 255.623 390.401 255.17C389.607 254.677 388.718 254.24 387.789 253.763C385.907 252.857 383.78 251.991 381.47 251.283C379.159 250.6 376.897 250.162 374.825 249.884C373.785 249.773 372.8 249.654 371.872 249.622C370.943 249.55 370.077 249.558 369.291 249.558C368.498 249.542 367.783 249.606 367.156 249.63C366.529 249.654 365.989 249.701 365.544 249.757C364.663 249.844 364.171 249.876 364.171 249.852C364.171 249.821 364.647 249.733 365.528 249.598C365.965 249.527 366.505 249.447 367.14 249.407C367.767 249.36 368.49 249.272 369.283 249.272C370.077 249.248 370.951 249.225 371.887 249.28C372.824 249.288 373.824 249.407 374.872 249.503C376.96 249.765 379.247 250.202 381.589 250.886C383.915 251.593 386.066 252.491 387.956 253.421C388.884 253.914 389.781 254.367 390.575 254.876C391.385 255.345 392.108 255.837 392.759 256.298C393.425 256.736 393.973 257.205 394.473 257.594C394.981 257.976 395.386 258.333 395.712 258.643C396.371 259.239 396.728 259.581 396.704 259.605V259.589Z" fill="#FAFAFA"/>
<path d="M350.048 218.765L356.565 190.525C359.058 179.906 362.011 169.7 366.965 168.492V171.775L364.846 252.458C364.846 252.458 351.572 267.592 334.646 259.174C329.359 256.543 319.714 238.064 319.714 238.064C319.714 238.064 297.302 197.964 298.231 196.144C299.16 194.324 312.878 176.631 314.276 175.749L350.04 218.749L350.048 218.765Z" fill="#E8505B"/>
<path d="M417.035 160.529C429.975 163.009 444.543 170.567 451.251 189.921C453.697 196.995 471.519 249.136 471.519 249.136L441.129 248.5L436.184 237.746L438.597 255.185L440.653 280.071L363.933 281.359L364.472 243.882L365.211 169.327C365.211 169.327 366.076 168.199 379.302 160.886C387.519 156.348 417.035 160.513 417.035 160.513V160.529Z" fill="#E8505B"/>
<g opacity="0.2">
<path d="M424.688 210.365C425.951 226.103 427.396 230.967 428.658 246.705C428.777 248.191 428.904 249.709 429.483 251.076C430.063 252.451 431.198 253.675 432.659 253.97C434.89 254.423 437.795 256.044 438.431 253.85L436.311 238.693C436.311 238.693 435.811 235.84 434.215 232.295C429.507 221.835 427.769 221.215 424.688 210.365Z" fill="black"/>
</g>
<path d="M379.302 168.97L379.556 167.332L382.009 151.626C382.16 150.681 383.01 150.005 383.962 150.084L414.169 152.612C416.067 152.771 417.48 154.432 417.345 156.332L416.67 165.456L407.239 177.776L393.656 179.899" fill="#E8505B"/>
<path d="M364.131 198.498C364.242 198.498 364.338 210.802 364.338 225.975C364.338 241.149 364.242 253.453 364.131 253.453C364.02 253.453 363.925 241.149 363.925 225.975C363.925 210.802 364.02 198.498 364.131 198.498Z" fill="#263238"/>
<path d="M441.772 251.028C441.772 251.028 441.733 250.972 441.677 250.853C441.614 250.71 441.526 250.535 441.431 250.313C441.209 249.804 440.899 249.105 440.51 248.222C439.716 246.37 438.581 243.74 437.192 240.505C434.421 233.947 430.61 224.934 426.403 214.983C424.315 209.991 422.322 205.238 420.504 200.906C419.544 198.768 418.901 196.574 418.551 194.516C418.186 192.449 418.043 190.502 418.027 188.721C417.988 185.161 418.52 182.275 419.234 180.415C419.322 180.185 419.401 179.962 419.48 179.756C419.576 179.557 419.671 179.374 419.758 179.199C419.925 178.85 420.076 178.563 420.234 178.357C420.369 178.158 420.481 177.999 420.576 177.864C420.655 177.753 420.695 177.705 420.703 177.705C420.758 177.737 420.036 178.595 419.393 180.471C418.734 182.331 418.25 185.184 418.321 188.721C418.416 192.235 418.893 196.511 420.854 200.763C422.68 205.087 424.68 209.84 426.776 214.824C430.944 224.799 434.715 233.82 437.454 240.393C438.795 243.652 439.883 246.299 440.645 248.159C441.002 249.057 441.288 249.764 441.495 250.281C441.582 250.504 441.653 250.686 441.709 250.837C441.757 250.965 441.772 251.028 441.764 251.028H441.772Z" fill="#263238"/>
<path d="M426.45 163.272C426.45 163.272 426.173 163.566 425.569 164.035C424.966 164.512 424.013 165.132 422.672 165.728C421.33 166.308 419.607 166.825 417.567 167.158C415.527 167.5 413.185 167.715 410.581 167.85C407.985 167.969 405.135 167.913 402.086 167.977C399.046 168.049 395.775 168.239 392.48 169.145C389.218 170.028 385.844 171.657 383.446 174.479C382.271 175.886 381.39 177.594 380.937 179.438C380.469 181.274 380.461 183.27 381.025 185.121C381.326 186.043 381.787 186.902 382.358 187.665C382.938 188.42 383.676 189.04 384.502 189.477C385.32 189.914 386.256 190.137 387.153 190.034C388.051 189.946 388.892 189.501 389.48 188.833C390.67 187.474 390.893 185.519 390.654 183.802C390.527 182.936 390.273 182.085 389.9 181.322C389.519 180.559 389.019 179.852 388.487 179.192C386.312 176.569 383.271 175.051 380.35 174.367C377.405 173.668 374.507 173.811 372.014 174.463C369.513 175.091 367.386 176.124 365.631 177.197C363.877 178.262 362.496 179.383 361.408 180.345C360.32 181.298 359.55 182.125 359.01 182.665C358.764 182.936 358.566 183.142 358.415 183.301C358.28 183.444 358.209 183.516 358.201 183.508C358.201 183.508 359.161 182.204 361.297 180.217C362.369 179.24 363.75 178.087 365.504 176.998C367.259 175.901 369.394 174.836 371.935 174.185C374.451 173.501 377.405 173.342 380.413 174.042C383.398 174.733 386.518 176.267 388.765 178.962C389.313 179.645 389.821 180.36 390.234 181.163C390.631 181.974 390.901 182.856 391.028 183.762C391.163 184.668 391.163 185.614 390.98 186.544C390.797 187.466 390.424 188.388 389.765 189.119C389.114 189.851 388.178 190.351 387.185 190.447C386.193 190.558 385.177 190.312 384.295 189.843C383.414 189.374 382.628 188.722 382.017 187.919C381.414 187.116 380.937 186.218 380.62 185.249C380.024 183.309 380.04 181.235 380.525 179.335C381.001 177.428 381.898 175.671 383.121 174.208C385.605 171.299 389.051 169.654 392.361 168.764C395.704 167.858 399.006 167.675 402.063 167.619C405.119 167.572 407.961 167.643 410.549 167.548C413.137 167.437 415.479 167.238 417.511 166.92C419.544 166.61 421.259 166.117 422.592 165.569C423.926 165.004 424.887 164.416 425.498 163.963C425.815 163.749 426.03 163.55 426.189 163.439C426.347 163.319 426.427 163.264 426.427 163.264L426.45 163.272Z" fill="#FAFAFA"/>
<path d="M452.704 196.351C452.704 196.351 452.585 196.383 452.363 196.406C452.141 196.422 451.815 196.47 451.387 196.478C450.537 196.518 449.307 196.51 447.79 196.39C446.274 196.279 444.48 196.049 442.495 195.778C440.51 195.508 438.335 195.206 436.033 195.079C433.739 194.968 431.548 195.143 429.603 195.564C427.666 195.993 425.982 196.645 424.704 197.432C422.108 198.99 421.172 200.738 421.084 200.643C421.076 200.643 421.132 200.532 421.251 200.349C421.386 200.166 421.537 199.872 421.83 199.554C422.354 198.878 423.26 198.004 424.554 197.185C425.84 196.351 427.554 195.659 429.523 195.198C431.5 194.753 433.731 194.562 436.057 194.674C438.383 194.801 440.566 195.119 442.551 195.405C444.535 195.699 446.314 195.961 447.822 196.104C449.323 196.255 450.545 196.311 451.395 196.319C452.236 196.327 452.712 196.319 452.712 196.351H452.704Z" fill="#FAFAFA"/>
<path d="M433.627 231.985C433.619 232.088 432.032 231.42 429.07 231.595C427.594 231.667 425.808 231.977 423.783 232.541C421.751 233.089 419.496 233.892 416.956 234.679C414.431 235.458 411.549 236.197 408.398 236.173C405.262 236.173 401.888 235.553 398.649 234.146C395.394 232.779 392.274 230.594 389.758 227.677C388.495 226.23 387.392 224.569 386.606 222.733C385.836 220.897 385.407 218.83 385.701 216.764C386.002 214.721 386.963 212.766 388.519 211.446C389.297 210.794 390.202 210.286 391.194 210.079C392.179 209.864 393.203 209.904 394.148 210.174C395.092 210.445 395.989 210.898 396.696 211.573C397.403 212.241 397.934 213.099 398.125 214.045C398.331 214.983 398.236 215.969 397.911 216.835C397.585 217.709 397.045 218.472 396.426 219.116C395.18 220.412 393.632 221.278 392.068 221.89C391.282 222.184 390.472 222.415 389.678 222.55C389.281 222.621 388.884 222.709 388.487 222.772C388.09 222.82 387.701 222.868 387.304 222.908C384.177 223.249 381.231 222.908 378.643 222.304C376.047 221.684 373.808 220.746 371.951 219.728C370.093 218.719 368.616 217.63 367.497 216.644C367.219 216.398 366.957 216.167 366.703 215.953C366.473 215.722 366.259 215.5 366.052 215.293C365.639 214.896 365.314 214.538 365.068 214.228C364.83 213.942 364.639 213.711 364.496 213.545C364.369 213.386 364.306 213.306 364.314 213.306C364.314 213.306 364.393 213.378 364.528 213.521C364.679 213.68 364.877 213.902 365.123 214.18C365.377 214.474 365.711 214.824 366.132 215.214C366.338 215.412 366.56 215.627 366.791 215.85C367.045 216.064 367.307 216.287 367.592 216.525C368.72 217.487 370.196 218.544 372.054 219.53C373.904 220.515 376.127 221.429 378.699 222.025C381.263 222.606 384.177 222.931 387.257 222.574C387.638 222.526 388.027 222.478 388.416 222.431C388.805 222.367 389.194 222.28 389.583 222.208C390.377 222.073 391.147 221.843 391.917 221.556C393.433 220.96 394.942 220.11 396.132 218.862C396.72 218.242 397.228 217.519 397.53 216.708C397.831 215.897 397.919 214.999 397.72 214.133C397.355 212.392 395.799 211.033 394.021 210.572C393.131 210.318 392.171 210.286 391.266 210.492C390.353 210.683 389.496 211.16 388.773 211.78C387.312 213.028 386.384 214.888 386.098 216.843C385.82 218.806 386.225 220.809 386.971 222.59C387.733 224.378 388.805 226.007 390.051 227.43C392.52 230.3 395.585 232.454 398.784 233.813C401.975 235.204 405.294 235.832 408.382 235.847C411.486 235.887 414.328 235.18 416.853 234.417C419.385 233.654 421.664 232.867 423.704 232.342C425.744 231.802 427.554 231.508 429.047 231.46C429.793 231.404 430.452 231.476 431.023 231.492C431.587 231.571 432.079 231.611 432.46 231.706C432.825 231.794 433.111 231.865 433.326 231.921C433.516 231.969 433.619 232 433.619 232.008L433.627 231.985Z" fill="#FAFAFA"/>
<path d="M363.869 223.51C363.806 223.542 363.441 222.668 362.671 221.372C361.901 220.076 360.67 218.383 358.995 216.81C357.312 215.244 355.542 214.131 354.192 213.456C352.85 212.78 351.953 212.47 351.977 212.406C351.985 212.383 352.215 212.43 352.628 212.549C353.041 212.661 353.62 212.883 354.319 213.193C355.716 213.813 357.558 214.91 359.273 216.508C360.988 218.113 362.21 219.87 362.917 221.229C363.274 221.905 363.528 222.469 363.671 222.874C363.822 223.272 363.885 223.502 363.861 223.51H363.869Z" fill="#FAFAFA"/>
<path d="M333.059 257.53C333.059 257.53 333.011 257.467 332.932 257.332C332.845 257.173 332.741 256.982 332.606 256.735C332.321 256.203 331.908 255.424 331.4 254.399C330.399 252.356 328.923 249.375 327.764 245.449C327.208 243.486 326.74 241.268 326.628 238.86C326.557 237.652 326.628 236.396 326.779 235.124C326.962 233.852 327.279 232.557 327.716 231.269C328.645 228.726 330.114 226.158 332.376 224.211C334.591 222.272 337.648 220.912 340.847 221.238C342.419 221.405 343.991 222.049 345.023 223.273C346.039 224.465 346.531 226.103 346.198 227.621C346.031 228.376 345.626 229.075 345.07 229.584C344.523 230.109 343.832 230.45 343.133 230.641C341.712 231.039 340.204 230.784 338.989 230.14C337.759 229.505 336.758 228.567 335.957 227.557C335.155 226.54 334.528 225.443 334.051 224.33C333.122 222.089 332.821 219.784 332.987 217.733C333.154 215.675 333.789 213.878 334.559 212.448C335.329 211.009 336.234 209.912 337.044 209.109C337.862 208.306 338.584 207.774 339.092 207.456C339.338 207.289 339.545 207.186 339.68 207.106C339.815 207.035 339.886 206.995 339.886 207.003C339.894 207.019 339.624 207.186 339.14 207.528C338.648 207.869 337.957 208.418 337.163 209.228C336.377 210.039 335.504 211.136 334.766 212.559C334.027 213.982 333.424 215.746 333.281 217.757C333.138 219.768 333.44 222.009 334.369 224.195C334.837 225.284 335.456 226.349 336.242 227.335C337.028 228.312 337.997 229.21 339.164 229.807C340.323 230.411 341.72 230.641 343.03 230.268C344.34 229.934 345.515 228.916 345.801 227.533C346.102 226.174 345.65 224.64 344.705 223.543C343.768 222.431 342.292 221.811 340.799 221.652C337.751 221.342 334.782 222.645 332.638 224.521C330.439 226.413 328.994 228.916 328.073 231.404C327.637 232.668 327.327 233.932 327.137 235.18C326.978 236.436 326.906 237.66 326.97 238.852C327.065 241.228 327.518 243.422 328.05 245.377C329.161 249.288 330.59 252.276 331.551 254.335C332.035 255.344 332.408 256.131 332.686 256.704C332.805 256.958 332.9 257.165 332.98 257.324C333.043 257.467 333.075 257.538 333.067 257.538L333.059 257.53Z" fill="#FAFAFA"/>
<path d="M323.262 187.354C323.262 187.354 323.302 187.465 323.334 187.687C323.365 187.91 323.421 188.228 323.453 188.649C323.532 189.492 323.572 190.716 323.453 192.218C323.23 195.214 322.167 199.403 319.531 203.234C316.895 207.065 313.37 209.561 310.655 210.841C309.298 211.492 308.139 211.898 307.329 212.12C306.924 212.248 306.606 212.303 306.392 212.359C306.178 212.407 306.059 212.422 306.059 212.407C306.051 212.375 306.495 212.24 307.281 211.969C308.075 211.699 309.202 211.254 310.528 210.578C313.172 209.243 316.609 206.755 319.197 202.996C321.778 199.236 322.865 195.135 323.167 192.186C323.326 190.7 323.334 189.492 323.302 188.657C323.27 187.822 323.238 187.354 323.27 187.354H323.262Z" fill="#FAFAFA"/>
<path d="M459.651 221.818C459.706 221.889 458.15 222.533 456.586 224.624C455.8 225.649 455.006 226.968 454.101 228.439C453.196 229.909 452.069 231.459 450.712 232.93C447.989 235.878 444.916 237.897 442.574 239.05C441.407 239.646 440.415 240.02 439.732 240.266C439.042 240.496 438.653 240.608 438.645 240.576C438.637 240.552 439.002 240.385 439.677 240.115C440.344 239.821 441.304 239.407 442.447 238.788C444.726 237.579 447.735 235.553 450.41 232.644C451.752 231.189 452.863 229.679 453.784 228.232C454.705 226.786 455.53 225.458 456.364 224.441C457.198 223.423 458.015 222.716 458.642 222.327C458.952 222.128 459.206 221.993 459.381 221.921C459.555 221.842 459.651 221.802 459.659 221.818H459.651Z" fill="#FAFAFA"/>
<path d="M416.749 161.458C416.749 161.458 416.622 161.506 416.384 161.554C416.098 161.602 415.749 161.665 415.328 161.745C414.407 161.896 413.074 162.102 411.43 162.325C408.128 162.77 403.555 163.287 398.49 163.66C395.958 163.843 393.536 164.01 391.321 163.922C389.107 163.843 387.122 163.477 385.534 162.929C383.938 162.396 382.756 161.689 382.001 161.141C381.62 160.862 381.342 160.632 381.168 160.457C380.985 160.29 380.898 160.195 380.906 160.187C380.93 160.163 381.319 160.505 382.089 161.005C382.859 161.506 384.042 162.158 385.621 162.651C387.193 163.151 389.146 163.477 391.329 163.541C393.513 163.612 395.926 163.438 398.458 163.255C403.515 162.881 408.088 162.412 411.399 162.039C413.002 161.856 414.32 161.705 415.313 161.594C416.233 161.49 416.749 161.443 416.757 161.474L416.749 161.458Z" fill="#263238"/>
<path d="M471.122 254.763C473.639 267.846 463.699 280.015 450.386 280.15L390.257 279.482L391.837 259.985L443.392 252.283" fill="#B78876"/>
<path d="M395.561 260.875C395.283 260.97 391.814 259.404 388.702 257.966C385.399 256.44 381.779 255.732 378.143 255.915L363.805 256.646C363.805 256.646 364.687 259.015 366.211 259.857C367.727 260.7 376.643 260.883 376.643 260.883L376.19 261.352C374.308 263.291 371.752 264.412 369.053 264.475L367.688 264.507C366.671 264.428 365.671 264.229 364.695 263.919L361.162 262.488C360.09 262.003 358.963 262.083 358.494 263.164C358.074 264.141 358.383 265.485 361.305 266.955C362.94 267.782 368.99 269.872 368.99 269.872C368.99 269.872 369.077 271.549 369.339 272.432C369.601 273.314 371.982 274.196 371.982 274.196C371.982 274.196 373.483 277.28 374.094 277.987C374.372 278.305 376.523 278.973 378.81 279.617C382.509 280.658 386.423 280.634 390.107 279.529L395.569 277.9V261.24" fill="#B78876"/>
<path d="M375.952 271.757C375.952 271.853 374.245 271.757 372.228 271.225C370.204 270.692 368.68 269.937 368.72 269.85C368.759 269.754 370.323 270.359 372.316 270.875C374.308 271.4 375.968 271.646 375.952 271.757Z" fill="#AA6550"/>
<path d="M375.444 275.119C375.444 275.215 374.515 275.27 373.427 274.976C372.332 274.682 371.57 274.165 371.617 274.078C371.665 273.983 372.475 274.348 373.523 274.626C374.563 274.913 375.452 275.016 375.444 275.119Z" fill="#AA6550"/>
<path d="M378.063 259.589C378.063 259.589 377.682 260.089 376.96 260.773C376.23 261.457 375.166 262.363 373.84 263.142C372.506 263.92 371.165 264.358 370.18 264.556C369.196 264.755 368.569 264.771 368.569 264.731C368.537 264.604 371.053 264.366 373.665 262.832C374.967 262.076 376.031 261.21 376.801 260.582C377.563 259.946 378.04 259.549 378.079 259.589H378.063Z" fill="#AA6550"/>
<path d="M397.021 258.245L395.561 280.293L452.204 280.317C456.046 280.317 459.825 279.276 463.12 277.289C470.773 272.687 474.718 263.785 472.996 255.018C472.416 251.433 471.051 247.244 469.344 242.785L440.867 247.475L441.78 251.028L397.029 258.253L397.021 258.245Z" fill="#E8505B"/>
<path d="M454.895 249.184C454.895 249.184 454.697 249.239 454.324 249.319C453.903 249.39 453.355 249.494 452.672 249.613C451.188 249.859 449.116 250.209 446.575 250.63C441.383 251.457 434.286 252.585 426.443 253.841C418.591 255.041 411.486 256.13 406.286 256.933C403.738 257.307 401.658 257.609 400.173 257.823C399.482 257.919 398.927 257.99 398.506 258.046C398.125 258.094 397.926 258.11 397.918 258.094C397.918 258.078 398.117 258.038 398.49 257.958C398.911 257.887 399.459 257.784 400.141 257.664C401.626 257.418 403.698 257.068 406.238 256.647C411.43 255.82 418.528 254.692 426.371 253.436C434.223 252.236 441.32 251.147 446.52 250.352C449.068 249.978 451.148 249.676 452.633 249.462C453.323 249.366 453.879 249.295 454.3 249.239C454.681 249.192 454.879 249.176 454.887 249.192L454.895 249.184Z" fill="#263238"/>
<path d="M425.911 280.333C425.815 280.317 426.252 278.743 426.307 276.144C426.307 275.492 426.323 274.785 426.228 274.03C426.188 273.267 426.03 272.472 425.879 271.629C425.514 269.96 424.918 268.164 424.037 266.4C423.148 264.635 422.036 263.101 420.941 261.789C420.655 261.472 420.377 261.162 420.107 260.86C419.829 260.558 419.536 260.303 419.266 260.033C418.734 259.484 418.17 259.047 417.678 258.626C415.654 256.997 414.217 256.242 414.264 256.17C414.28 256.146 414.637 256.329 415.28 256.687C415.598 256.862 415.995 257.076 416.424 257.378C416.844 257.68 417.368 257.974 417.869 258.404C418.377 258.817 418.956 259.246 419.504 259.787C419.782 260.057 420.083 260.311 420.369 260.613C420.647 260.915 420.933 261.233 421.227 261.551C422.362 262.87 423.497 264.42 424.402 266.225C425.299 268.029 425.895 269.865 426.252 271.566C426.395 272.424 426.546 273.243 426.569 274.014C426.649 274.785 426.617 275.508 426.601 276.168C426.609 276.828 426.49 277.416 426.442 277.932C426.395 278.449 426.292 278.894 426.212 279.252C426.045 279.967 425.95 280.357 425.918 280.349L425.911 280.333Z" fill="#FAFAFA"/>
<path d="M460.389 278.672C460.389 278.672 459.436 278.712 457.761 278.354C456.935 278.156 455.911 277.87 454.824 277.321C453.736 276.773 452.561 275.986 451.513 274.849C450.473 273.721 449.552 272.234 449.076 270.478C448.854 269.595 448.671 268.665 448.655 267.704C448.592 266.742 448.679 265.733 448.893 264.731C449.116 263.73 449.481 262.728 450.068 261.814C450.64 260.9 451.458 260.089 452.45 259.549C453.434 259 454.593 258.69 455.768 258.786C456.943 258.865 458.11 259.453 458.88 260.399C459.65 261.329 460.087 262.553 459.92 263.753C459.762 264.969 458.936 265.963 457.967 266.543C455.983 267.728 453.688 267.712 451.704 267.402C447.647 266.726 444.487 264.302 442.844 261.719C441.145 259.127 440.716 256.568 440.669 254.875C440.621 253.158 440.891 252.236 440.891 252.236C440.947 252.236 440.724 253.174 440.828 254.867C440.931 256.536 441.391 259.04 443.09 261.56C444.733 264.055 447.83 266.392 451.767 267.028C453.696 267.322 455.919 267.306 457.753 266.201C458.642 265.661 459.373 264.763 459.507 263.698C459.65 262.641 459.261 261.52 458.555 260.669C457.848 259.803 456.808 259.286 455.729 259.207C454.649 259.112 453.561 259.406 452.64 259.914C450.751 260.94 449.679 262.919 449.266 264.826C449.052 265.788 448.965 266.766 449.02 267.704C449.02 268.642 449.195 269.548 449.409 270.406C449.854 272.115 450.735 273.562 451.727 274.674C452.736 275.795 453.871 276.574 454.927 277.13C455.991 277.687 456.983 277.989 457.801 278.219C459.444 278.617 460.397 278.633 460.389 278.688V278.672Z" fill="#FAFAFA"/>
<path d="M235.697 38.4668H93.8388C76.572 38.4668 62.5759 52.4796 62.5759 69.7672V120.382H31.9639L62.5759 151.031V185.431C62.5759 202.718 76.572 216.731 93.8388 216.731H235.697C252.964 216.731 266.96 202.718 266.96 185.431V69.7672C266.96 52.4796 252.964 38.4668 235.697 38.4668Z" fill="#E8505B"/>
<path d="M177.744 43.8232C176.847 46.1441 178.387 48.6876 180.118 50.4759C181.848 52.2722 183.936 53.9732 184.484 56.4054C184.936 58.4481 184.182 60.5703 184.365 62.6527C184.555 64.7829 185.699 66.6984 186.35 68.7332C187.532 72.4212 187.056 76.451 186 80.1787C185.135 83.2388 183.857 86.2433 181.745 88.6119C179.633 90.9804 176.593 92.6575 173.425 92.6019C172.528 92.586 171.552 92.3873 170.964 91.7117C170.456 91.1235 170.345 90.2969 170.25 89.5259C168.432 73.5419 168.432 57.3512 170.25 41.3672" fill="#A0480B"/>
<path d="M176.069 95.4014C182.976 95.0993 189.358 101.72 188.811 108.619C195.805 110.32 200.743 118.03 199.377 125.104C198.925 127.441 197.893 129.666 197.75 132.035C197.591 134.626 198.512 137.138 199.012 139.689C199.917 144.291 199.425 149.156 197.631 153.488C196.543 156.118 194.511 158.837 191.669 158.916C189.74 158.972 187.953 157.716 186.874 156.11C185.802 154.505 185.326 152.573 184.945 150.682C183.714 144.474 183.341 138.092 181.642 131.995C179.943 125.899 176.633 119.89 171.123 116.782C168.083 115.065 164.431 114.255 162.009 111.727C159.477 109.08 158.897 104.892 160.223 101.474C161.549 98.0561 164.566 95.4491 168.003 94.2012" fill="#A0480B"/>
<path d="M128.262 49.515C128.174 46.5582 130.905 44.277 133.652 43.1961C136.399 42.1151 139.455 41.7018 141.901 40.0565C144.068 38.594 145.529 36.3129 147.362 34.453C151.864 29.8827 158.898 27.991 165.082 29.676C171.266 31.369 176.363 36.5752 177.927 42.7987C178.983 47.0033 178.26 51.9789 174.95 54.7767C171.107 58.0197 165.407 57.3043 160.477 56.2949C155.547 55.2854 149.974 54.2919 145.862 57.1851C143.385 58.9337 141.956 61.7712 140.44 64.4021C138.924 67.033 137.018 69.7195 134.152 70.7051C131.286 71.6907 127.388 69.9898 127.277 66.9535" fill="#A0480B"/>
<path d="M139.9 50.1192C137.352 50.3974 135.438 52.5753 135.494 55.1426L138.439 121.908C138.566 129.793 150.077 134.228 158.508 134.029C167.027 133.831 167.297 129.65 167.408 122.147C167.582 109.612 167.575 104.907 167.575 104.978C167.575 104.978 178.332 103.166 180.531 89.1056C181.626 82.1111 181.245 70.6497 180.634 61.2866C180.086 52.8535 174.481 42.5207 166.09 43.4268L139.9 50.1192Z" fill="#FFBE9D"/>
<path d="M178.212 70.1166C178.252 71.0704 177.474 71.8812 176.482 71.9368C175.489 71.9924 174.656 71.2691 174.624 70.3154C174.592 69.3616 175.362 68.5508 176.355 68.4952C177.347 68.4396 178.181 69.1629 178.22 70.1166H178.212Z" fill="#263238"/>
<path d="M178.165 67.255C177.943 67.4934 176.577 66.484 174.64 66.4919C172.703 66.476 171.282 67.4775 171.076 67.2391C170.972 67.1358 171.203 66.7065 171.814 66.2535C172.425 65.8004 173.457 65.3633 174.664 65.3633C175.871 65.3633 176.887 65.8084 177.474 66.2614C178.07 66.7145 178.276 67.1437 178.165 67.247V67.255Z" fill="#263238"/>
<path d="M159.596 70.1166C159.635 71.0704 158.857 71.8812 157.865 71.9368C156.873 71.9924 156.039 71.2691 156.007 70.3154C155.976 69.3616 156.746 68.5508 157.738 68.4952C158.73 68.4396 159.564 69.1629 159.596 70.1166Z" fill="#263238"/>
<path d="M159.119 67.6612C158.897 67.8997 157.532 66.8902 155.595 66.8982C153.658 66.8823 152.237 67.8838 152.03 67.6453C151.927 67.542 152.149 67.1128 152.768 66.6597C153.38 66.2067 154.412 65.7695 155.618 65.7695C156.825 65.7695 157.841 66.2146 158.429 66.6677C159.024 67.1207 159.231 67.55 159.119 67.6533V67.6612Z" fill="#263238"/>
<path d="M166.185 82.0311C166.177 81.9198 167.376 81.7131 169.329 81.4588C169.821 81.4032 170.289 81.3078 170.377 80.966C170.496 80.6083 170.282 80.0758 170.043 79.4956C169.575 78.2954 169.083 77.0395 168.575 75.7281C166.534 70.363 165.05 65.9517 165.264 65.8722C165.479 65.7927 167.312 70.0768 169.361 75.4419C169.853 76.7613 170.321 78.0251 170.774 79.2333C170.964 79.7976 171.282 80.4335 171.036 81.1806C170.901 81.5542 170.544 81.8165 170.226 81.9039C169.908 81.9993 169.631 82.0072 169.384 82.0231C167.424 82.1344 166.201 82.1423 166.193 82.0311H166.185Z" fill="#263238"/>
<path d="M167.575 104.986C167.575 104.986 158.128 105.613 148.76 100.002C148.76 100.002 153.34 109.651 167.392 108.3L167.575 104.978V104.986Z" fill="#EB996E"/>
<path d="M165.375 86.7137C164.677 85.7917 163.454 85.291 162.24 85.4261C161.398 85.5215 160.549 85.9268 160.041 86.6104C159.532 87.2939 159.429 88.2716 159.89 88.9233C160.414 89.6546 161.509 89.8294 162.43 89.5592C163.351 89.2969 164.145 88.6849 164.907 88.0729C165.113 87.906 165.328 87.7311 165.463 87.5006C165.59 87.2701 165.621 86.9681 165.463 86.7773" fill="#EB996E"/>
<path d="M160.485 83.3907C160.803 83.3748 160.811 85.4811 162.613 86.9674C164.415 88.4617 166.654 88.2233 166.67 88.5174C166.701 88.6525 166.17 88.9307 165.225 88.9545C164.296 88.9863 162.938 88.6922 161.835 87.7782C160.731 86.8641 160.263 85.6401 160.184 84.7817C160.104 83.8994 160.335 83.3828 160.477 83.3907H160.485Z" fill="#263238"/>
<path d="M159.985 64.2663C159.794 64.7909 157.857 64.5445 155.587 64.8307C153.308 65.0612 151.475 65.7368 151.173 65.2599C151.038 65.0373 151.355 64.5366 152.094 64.0279C152.824 63.5192 153.999 63.0264 155.365 62.8754C156.73 62.7244 157.976 62.939 158.81 63.2728C159.644 63.6066 160.064 64.0199 159.985 64.2743V64.2663Z" fill="#A0480B"/>
<path d="M177.443 61.6448C177.101 62.0899 175.767 61.6289 174.164 61.613C172.56 61.5414 171.203 61.915 170.885 61.454C170.75 61.2315 170.965 60.7864 171.552 60.373C172.139 59.9597 173.116 59.618 174.219 59.6418C175.323 59.6736 176.276 60.071 176.839 60.5241C177.411 60.9771 177.593 61.4302 177.443 61.6448Z" fill="#A0480B"/>
<path d="M130.096 96.3705C133.954 97.1494 138.161 95.9651 141.043 93.2786C143.925 90.5921 145.417 86.4828 144.925 82.5722C144.489 79.1227 142.631 75.6095 143.822 72.3428C145.402 68.0189 151.451 66.6915 153.055 62.3836C153.991 59.8798 153.15 56.9469 154.206 54.4909C155.198 52.1779 157.627 50.8506 159.985 50.0001C162.343 49.1417 164.875 48.5535 166.86 47.0116C168.845 45.4696 170.083 42.5526 168.797 40.3906C158.326 41.6465 147.998 44.1581 138.122 47.8541C135.827 48.7125 133.422 49.7378 132.072 51.7805C130.635 53.9345 130.707 56.7244 130.826 59.3155C131.413 71.9374 129.492 83.7565 130.088 96.3784" fill="#A0480B"/>
<path d="M126.753 92.403C126.753 92.403 126.674 92.3871 126.523 92.3315C126.372 92.2838 126.158 92.1805 125.88 92.0215C125.348 91.7036 124.634 91.0438 124.126 89.947C123.625 88.866 123.332 87.3558 123.665 85.6787C123.999 84.0017 124.967 82.2769 126.213 80.5759C127.444 78.8591 129 77.1184 130.064 74.9009C130.588 73.796 130.977 72.572 130.993 71.2764C131.016 69.9809 130.604 68.6853 130.167 67.3659C129.722 66.0544 129.286 64.6237 129.341 63.1135C129.405 61.6193 129.834 60.1091 130.619 58.7738C131.397 57.4385 132.517 56.2462 133.898 55.4355C135.28 54.5771 136.931 54.283 138.527 54.1161C140.13 53.9333 141.726 53.8458 143.155 53.3053C144.6 52.7887 145.719 51.6839 146.41 50.3724C147.116 49.061 147.521 47.6223 147.95 46.2234C148.371 44.8245 148.871 43.4574 149.53 42.2095C150.824 39.7058 152.65 37.6154 154.793 36.288C156.937 34.9607 159.326 34.4202 161.462 34.5553C163.605 34.6904 165.463 35.5489 166.709 36.7093C167.964 37.8618 168.702 39.1812 169.059 40.3178C169.424 41.4544 169.44 42.4003 169.385 43.0202C169.329 43.6402 169.218 43.9581 169.218 43.9581C169.194 43.9581 169.273 43.6323 169.297 43.0202C169.329 42.4082 169.281 41.4783 168.9 40.3735C168.527 39.2687 167.789 37.9969 166.55 36.8921C165.328 35.7794 163.526 34.9766 161.446 34.8574C159.374 34.7381 157.056 35.2866 154.984 36.5901C152.912 37.8936 151.133 39.9443 149.879 42.4003C149.236 43.6243 148.752 44.9596 148.339 46.3585C147.91 47.7495 147.513 49.212 146.775 50.5791C146.41 51.2626 145.941 51.9144 145.354 52.4549C144.774 53.0033 144.06 53.4166 143.306 53.7028C141.789 54.2671 140.162 54.3545 138.574 54.5373C136.986 54.7042 135.422 54.9904 134.113 55.8011C132.795 56.5721 131.723 57.7087 130.969 58.9884C130.215 60.268 129.794 61.7067 129.73 63.1374C129.683 64.5681 130.08 65.9352 130.524 67.2546C130.961 68.574 131.382 69.9173 131.35 71.2923C131.326 72.6515 130.913 73.9312 130.365 75.0598C129.262 77.333 127.674 79.0658 126.436 80.7587C125.181 82.4358 124.221 84.1129 123.872 85.7423C123.522 87.3638 123.784 88.8422 124.253 89.8993C124.721 90.9723 125.396 91.632 125.904 91.9658C126.412 92.3076 126.737 92.3871 126.729 92.4189L126.753 92.403Z" fill="#CE7234"/>
<path d="M167.551 31.1154C167.551 31.1154 167.757 31.1392 168.099 31.2823C168.44 31.4254 168.908 31.6797 169.424 32.0851C170.456 32.8799 171.671 34.4219 171.981 36.4566C172.282 38.4993 171.568 40.3274 170.814 41.3846C170.433 41.9251 170.059 42.3066 169.782 42.545C169.496 42.7755 169.321 42.8788 169.305 42.863C169.25 42.8073 169.901 42.3145 170.568 41.2256C171.234 40.1685 171.854 38.4278 171.568 36.5123C171.282 34.6047 170.178 33.1183 169.234 32.2997C168.281 31.4571 167.519 31.179 167.551 31.1074V31.1154Z" fill="#CE7234"/>
<path d="M198.655 127.583C198.607 127.567 198.901 127.074 199.06 126.097C199.227 125.127 199.147 123.641 198.369 122.051C197.615 120.453 196.035 118.935 193.939 117.918C192.891 117.401 191.724 116.996 190.494 116.686C189.255 116.368 187.946 116.098 186.628 115.677C185.318 115.255 184.04 114.683 183.079 113.737C182.087 112.823 181.61 111.528 181.404 110.359C181.19 109.175 181.118 108.054 180.856 107.053C180.602 106.051 180.134 105.201 179.578 104.525C178.459 103.158 177.109 102.514 176.18 102.212C175.228 101.926 174.672 101.926 174.672 101.886C174.672 101.87 174.815 101.87 175.077 101.878C175.339 101.886 175.728 101.942 176.22 102.061C177.181 102.323 178.602 102.943 179.792 104.342C180.38 105.034 180.896 105.932 181.174 106.973C181.46 108.014 181.547 109.143 181.769 110.296C181.984 111.432 182.42 112.601 183.349 113.451C184.238 114.325 185.461 114.882 186.739 115.287C188.025 115.7 189.327 115.971 190.581 116.296C191.836 116.622 193.026 117.044 194.098 117.576C196.25 118.633 197.877 120.247 198.623 121.924C199.393 123.593 199.425 125.143 199.203 126.129C199.1 126.629 198.957 126.995 198.846 127.233C198.726 127.472 198.655 127.591 198.647 127.583H198.655Z" fill="#CE7234"/>
<path d="M137.59 102.688C130.477 100.781 124.332 93.81 121.839 86.8711C119.346 79.9402 119.346 72.3576 119.982 65.0133C120.442 59.688 121.379 54.0685 124.904 50.0626C130.223 44.0219 135.978 40.9379 144.02 41.1923" fill="#A0480B"/>
<path d="M179.109 118.189L172.481 116.519C174.037 115.28 174.473 113.698 173.798 111.894C173.005 109.779 170.972 108.388 168.733 108.134L138.503 104.716C137.423 104.597 136.367 105.193 135.97 106.211C134.628 109.62 134.581 112.426 135.835 114.636H135.692L129.873 115.796L120.021 203.021L184.706 199.992L179.125 118.189H179.109Z" fill="#F5F5F5"/>
<path d="M169.599 116.854C169.599 116.854 169.17 116.965 168.384 117.084C167.598 117.211 166.455 117.354 165.042 117.49C162.208 117.768 158.27 117.943 153.936 117.728C149.593 117.505 145.695 116.941 142.901 116.385C141.504 116.107 140.384 115.852 139.614 115.646C138.844 115.447 138.423 115.32 138.431 115.296C138.431 115.272 138.876 115.336 139.654 115.495C140.432 115.654 141.559 115.86 142.956 116.099C145.751 116.576 149.633 117.1 153.96 117.315C158.278 117.529 162.2 117.394 165.026 117.196C166.439 117.1 167.583 116.997 168.376 116.917C169.17 116.846 169.607 116.814 169.607 116.846L169.599 116.854Z" fill="#263238"/>
<path d="M140.36 130.715C140.265 130.651 141.281 128.966 142.623 126.947C143.972 124.928 145.139 123.346 145.235 123.41C145.33 123.474 144.314 125.159 142.972 127.178C141.63 129.196 140.455 130.778 140.36 130.715Z" fill="#E0E0E0"/>
<path d="M161.208 132.194C161.12 132.266 159.834 130.811 158.334 128.943C156.833 127.075 155.698 125.51 155.785 125.438C155.873 125.367 157.159 126.821 158.659 128.689C160.16 130.557 161.295 132.123 161.208 132.194Z" fill="#E0E0E0"/>
<path d="M151.522 143.281C151.411 143.304 150.975 141.357 150.546 138.941C150.117 136.525 149.863 134.553 149.974 134.53C150.085 134.506 150.522 136.453 150.951 138.869C151.379 141.286 151.634 143.257 151.522 143.281Z" fill="#E0E0E0"/>
<path d="M167.44 143.966C167.519 144.045 165.876 145.802 163.764 147.876C161.652 149.959 159.882 151.572 159.803 151.493C159.723 151.413 161.367 149.657 163.478 147.582C165.582 145.5 167.36 143.886 167.44 143.966Z" fill="#E0E0E0"/>
<path d="M146.092 158.828C146.045 158.915 144.068 157.715 142.139 155.657C140.194 153.606 139.114 151.571 139.209 151.523C139.313 151.452 140.535 153.359 142.441 155.37C144.338 157.389 146.164 158.725 146.092 158.828Z" fill="#E0E0E0"/>
<path d="M152.951 170.306C152.983 170.425 151.141 171.013 149.045 172.126C146.942 173.231 145.417 174.423 145.338 174.328C145.267 174.256 146.703 172.889 148.847 171.761C150.99 170.624 152.927 170.203 152.943 170.306H152.951Z" fill="#E0E0E0"/>
<path d="M164.106 171.052C164.066 171.084 163.574 170.575 162.843 169.693C162.113 168.81 161.136 167.563 160.12 166.14C159.104 164.717 158.247 163.39 157.651 162.412C157.056 161.434 156.73 160.806 156.778 160.775C156.826 160.743 157.246 161.315 157.897 162.253C158.644 163.318 159.509 164.542 160.462 165.901C161.438 167.245 162.319 168.461 163.081 169.51C163.756 170.432 164.161 171.012 164.113 171.052H164.106Z" fill="#E0E0E0"/>
<path d="M165.225 180.836C165.248 180.947 163.121 181.512 160.445 181.949C157.77 182.394 155.579 182.545 155.563 182.434C155.547 182.314 157.714 181.988 160.374 181.543C163.033 181.106 165.193 180.725 165.217 180.836H165.225Z" fill="#E0E0E0"/>
<path d="M147.164 115.621C147.108 115.573 147.489 115.144 147.815 114.302C148.148 113.467 148.355 112.211 148.156 110.852C147.958 109.485 147.481 108.309 147.132 107.466C146.775 106.624 146.544 106.099 146.6 106.067C146.648 106.043 146.973 106.52 147.402 107.339C147.823 108.166 148.362 109.358 148.569 110.796C148.775 112.235 148.505 113.57 148.085 114.421C147.664 115.279 147.195 115.661 147.164 115.629V115.621Z" fill="#E0E0E0"/>
<path d="M159.247 109.096C159.334 109.04 160.08 110.129 160.438 111.703C160.811 113.269 160.628 114.58 160.525 114.564C160.406 114.564 160.39 113.292 160.033 111.798C159.691 110.296 159.136 109.159 159.247 109.104V109.096Z" fill="#E0E0E0"/>
<path d="M213.747 171.235L243.843 118.323L247.471 109.143C247.471 109.143 256.846 88.9465 257.505 86.8959C258.259 84.5193 259.585 84.3127 260.443 84.6545C261.776 85.1791 262.205 87.1741 261.618 89.2247C261.411 89.9321 257.767 101.028 257.767 101.028C257.767 101.028 258.569 100.273 260.879 98.715C263.189 97.1571 267.429 97.2048 271.343 98.6037C275.256 100.003 276.233 100.742 275.764 102.284C275.574 102.904 275.066 103.293 274.51 103.532C273.597 103.921 272.549 103.913 271.612 103.595C265.309 101.441 262.515 104.287 262.515 104.287L262.038 105.487C262.038 105.487 266.778 103.969 269.469 106.115C269.906 106.465 270.223 106.854 270.453 107.267C272.129 107.824 273.494 109.278 273.907 111.003C274.335 112.799 273.732 114.802 272.383 116.058C271.74 116.654 270.763 117.091 269.993 116.662C269.588 116.432 269.334 116.018 269.088 115.621C268.961 115.414 268.818 115.2 268.659 115.025L266.857 118.204C266.857 118.204 262.435 125.127 260.847 128.354L240.135 183.611C237.261 191.273 228.679 195.088 221.074 192.076C212.81 188.801 209.349 178.961 213.747 171.227V171.235Z" fill="#FFBE9D"/>
<path d="M245.907 118.149C246.971 118.84 248.439 118.371 249.392 117.537C250.352 116.71 250.996 115.573 251.893 114.683C254.576 112.004 259.061 111.75 261.61 108.944C261.967 108.555 262.284 107.959 261.975 107.53C261.689 107.132 261.094 107.18 260.617 107.275C256.513 108.086 252.409 108.905 248.304 109.715" fill="#FFBE9D"/>
<path d="M248.304 109.716C248.296 109.668 248.757 109.525 249.606 109.318C250.456 109.104 251.686 108.826 253.218 108.484C254.806 108.142 256.616 107.761 258.585 107.339C259.093 107.236 259.609 107.125 260.141 107.021C260.641 106.958 261.268 106.648 262.022 107.085C262.388 107.316 262.53 107.84 262.427 108.206C262.34 108.579 262.157 108.857 261.943 109.112C261.522 109.573 261.07 109.986 260.554 110.336C258.505 111.759 256.259 112.339 254.465 113.277C253.56 113.73 252.758 114.254 252.131 114.874C251.495 115.486 250.995 116.186 250.471 116.782C249.471 118.038 248.129 118.658 247.209 118.618C246.264 118.602 245.875 118.157 245.907 118.149C245.938 118.085 246.351 118.411 247.193 118.34C248.034 118.276 249.161 117.696 250.082 116.456C250.567 115.86 251.043 115.137 251.71 114.453C252.377 113.762 253.226 113.181 254.163 112.697C256.013 111.695 258.251 111.075 260.141 109.756C260.609 109.438 261.03 109.04 261.395 108.651C261.737 108.261 261.864 107.784 261.61 107.657C261.363 107.474 260.792 107.586 260.268 107.697C259.736 107.8 259.22 107.896 258.712 107.991C256.727 108.357 254.909 108.691 253.313 108.985C251.773 109.255 250.527 109.462 249.662 109.597C248.796 109.724 248.312 109.772 248.304 109.724V109.716Z" fill="#EB996E"/>
<path d="M261.864 105.511C261.943 105.559 262.11 104.526 263.277 103.604C263.848 103.15 264.69 102.84 265.658 102.825C266.627 102.793 267.691 103.023 268.794 103.357C269.898 103.683 270.985 104.009 272.017 104.088C273.049 104.168 274.002 104.033 274.725 103.667C275.463 103.309 275.812 102.658 275.876 102.221C275.947 101.783 275.876 101.545 275.86 101.545C275.812 101.545 275.82 101.783 275.701 102.181C275.582 102.57 275.249 103.087 274.582 103.373C273.923 103.659 273.026 103.755 272.057 103.659C271.081 103.564 270.041 103.238 268.921 102.904C267.81 102.57 266.683 102.34 265.635 102.395C264.595 102.435 263.658 102.825 263.07 103.349C262.467 103.866 262.149 104.446 261.999 104.851C261.848 105.265 261.84 105.503 261.864 105.511Z" fill="#EB996E"/>
<path d="M261.824 88.4377C261.761 88.4218 261.499 89.2723 261.086 90.6394C260.617 92.1575 260.062 93.9777 259.442 95.9807C258.791 97.9757 258.212 99.7799 257.72 101.298C257.275 102.657 256.997 103.5 257.061 103.524C257.116 103.547 257.497 102.745 258.029 101.409C258.561 100.074 259.228 98.2062 259.887 96.1237C260.546 94.0413 261.07 92.1257 261.403 90.7348C261.737 89.3359 261.888 88.4616 261.824 88.4457V88.4377Z" fill="#EB996E"/>
<path d="M263.563 108.826C263.563 108.826 263.833 108.826 264.285 108.778C264.722 108.746 265.46 108.707 266.016 109.247C266.286 109.501 266.389 109.907 266.294 110.352C266.214 110.797 265.968 111.25 265.73 111.759C265.492 112.252 265.246 112.895 265.436 113.587C265.635 114.247 266.183 114.779 266.849 115.01C267.532 115.248 268.262 115.113 268.826 114.811C269.398 114.501 269.858 114.064 270.144 113.531C270.652 112.498 270.866 111.512 271.009 110.67C271.136 109.827 271.128 109.128 271.033 108.659C270.93 108.182 270.771 107.96 270.755 107.975C270.716 107.991 270.811 108.23 270.858 108.683C270.898 109.136 270.858 109.804 270.692 110.614C270.517 111.409 270.255 112.387 269.771 113.325C269.295 114.183 268.104 114.938 267 114.572C266.46 114.39 266.024 113.953 265.873 113.46C265.722 112.959 265.897 112.426 266.119 111.942C266.333 111.449 266.595 110.956 266.675 110.423C266.778 109.907 266.611 109.319 266.246 109.017C265.516 108.397 264.698 108.532 264.261 108.611C263.793 108.707 263.555 108.802 263.563 108.834V108.826Z" fill="#EB996E"/>
<path d="M268.754 114.413C268.754 114.413 268.596 114.62 268.611 115.057C268.627 115.479 268.85 116.162 269.532 116.615C270.199 117.06 271.271 117.14 272.208 116.647C273.145 116.154 273.867 115.192 274.232 114.072C274.597 112.943 274.558 111.767 274.232 110.797C273.915 109.819 273.327 109.072 272.763 108.571C272.192 108.063 271.628 107.793 271.231 107.649C270.834 107.506 270.596 107.483 270.588 107.514C270.549 107.594 271.493 107.801 272.533 108.818C273.041 109.319 273.557 110.034 273.819 110.932C274.097 111.822 274.113 112.903 273.788 113.937C273.462 114.962 272.803 115.836 272.001 116.281C271.207 116.726 270.287 116.695 269.699 116.353C269.104 116.011 268.85 115.431 268.786 115.057C268.715 114.668 268.786 114.437 268.746 114.429L268.754 114.413Z" fill="#EB996E"/>
<path d="M258.736 119.389C258.736 119.389 258.379 119.143 257.672 119.063C256.973 118.984 255.918 119.087 254.909 119.723L255.251 119.954C255.354 119.469 255.433 118.944 255.481 118.396C255.751 115.328 254.774 112.959 254.679 113.023C254.544 113.055 255.29 115.407 255.02 118.356C254.973 118.889 254.901 119.397 254.822 119.866L254.727 120.383L255.163 120.097C256.053 119.501 257.013 119.35 257.664 119.342C258.331 119.342 258.728 119.445 258.744 119.389H258.736Z" fill="#EB996E"/>
<path d="M264.999 100.535C264.88 100.551 265.055 101.489 265.896 102.22C266.73 102.959 267.683 103.007 267.683 102.888C267.707 102.753 266.929 102.522 266.198 101.878C265.46 101.25 265.126 100.495 264.999 100.543V100.535Z" fill="#EB996E"/>
<path d="M171.044 215.142L202.513 215.452L197.218 192.585L198.988 196.901C202.331 205.048 210.254 210.373 219.058 210.373C229.013 210.373 235.888 202.957 240.104 193.928C249.948 172.817 259.434 138.822 259.434 138.822L240.238 121.94C226.354 148.241 213.294 171.093 213.294 171.093C213.294 171.093 209.523 159.623 206.618 149.386C203.704 139.156 203.728 133.775 199.25 128.665C192.375 120.82 182.571 118.864 173.465 116.52L173.124 158.995L171.044 215.142Z" fill="#E8505B"/>
<path d="M135.049 183.507L192.367 194.682L195.162 216.731H107.279C97.086 216.866 88.9805 208.202 89.7823 198.028C91.0446 181.957 92.418 162.166 93.4659 153.796C94.2757 147.271 96.8796 140.523 99.9599 134.712C104.398 126.351 119.18 115.605 132.144 115.08L134.597 169.741" fill="#E8505B"/>
<g opacity="0.4">
<path d="M171.044 215.14L202.513 215.45L197.218 192.583L198.988 196.899C202.331 205.046 210.254 210.371 219.058 210.371C229.013 210.371 235.888 202.955 240.104 193.926C249.948 172.815 259.434 138.82 259.434 138.82L240.238 121.938C226.354 148.239 213.294 171.091 213.294 171.091C213.294 171.091 209.523 159.621 206.618 149.384C203.704 139.154 203.728 133.773 199.25 128.663C192.375 120.818 182.571 118.862 173.465 116.518L173.124 158.993L171.044 215.14Z" fill="black"/>
<path d="M135.049 183.507L186.747 193.005C188.898 193.402 190.605 195.064 191.058 197.21L195.162 216.739H107.279C97.086 216.874 88.9805 208.21 89.7823 198.036C91.0446 181.965 92.418 162.174 93.4659 153.804C94.2757 147.278 96.8796 140.53 99.9599 134.72C104.398 126.359 119.18 115.612 132.144 115.088L134.597 169.748" fill="black"/>
</g>
<path d="M124.133 181.909C124.133 181.909 124.11 181.726 124.11 181.384C124.11 180.995 124.11 180.502 124.11 179.882C124.11 178.523 124.125 176.647 124.141 174.35C124.141 169.684 124.062 163.238 123.697 156.125C123.522 152.572 123.284 149.186 123.038 146.11C122.808 143.034 122.538 140.268 121.887 138.034C121.259 135.801 120.251 134.163 119.362 133.241C118.473 132.304 117.814 131.962 117.854 131.914C117.854 131.914 118.536 132.208 119.481 133.13C120.426 134.044 121.506 135.697 122.172 137.955C122.871 140.212 123.173 143.01 123.427 146.078C123.697 149.154 123.935 152.548 124.117 156.109C124.483 163.23 124.522 169.684 124.443 174.358C124.403 176.695 124.34 178.586 124.276 179.89C124.244 180.51 124.213 181.003 124.197 181.392C124.173 181.734 124.157 181.917 124.141 181.917L124.133 181.909Z" fill="#263238"/>
<path d="M191.256 196.241C191.208 196.288 190.684 195.422 189.168 194.548C188.414 194.119 187.429 193.713 186.238 193.379C185.048 193.038 183.666 192.775 182.134 192.465C176.013 191.217 167.551 189.477 158.183 187.72C148.807 185.964 140.289 184.549 134.12 183.563C131.064 183.07 128.579 182.673 126.809 182.387C125.975 182.244 125.316 182.133 124.824 182.053C124.371 181.974 124.133 181.926 124.133 181.91C124.133 181.894 124.379 181.91 124.832 181.974C125.324 182.037 125.991 182.125 126.825 182.228C128.555 182.458 131.064 182.808 134.152 183.269C140.336 184.183 148.863 185.55 158.246 187.315C167.622 189.071 176.077 190.852 182.182 192.179C183.706 192.513 185.095 192.799 186.294 193.157C187.493 193.515 188.485 193.952 189.239 194.413C189.994 194.866 190.502 195.343 190.811 195.684C190.978 195.851 191.073 196.002 191.145 196.09C191.216 196.185 191.248 196.233 191.24 196.241H191.256Z" fill="#263238"/>
<path d="M124.308 181.909C124.324 181.981 123.252 182.235 121.617 182.895C120.799 183.221 119.854 183.682 118.846 184.262C117.846 184.858 116.79 185.581 115.758 186.44C114.734 187.314 113.845 188.228 113.083 189.118C112.336 190.017 111.717 190.867 111.257 191.614C110.32 193.108 109.891 194.126 109.82 194.094C109.796 194.086 109.883 193.824 110.066 193.355C110.241 192.886 110.558 192.234 111.003 191.455C111.439 190.676 112.043 189.786 112.781 188.864C113.535 187.95 114.44 187.004 115.48 186.114C116.536 185.24 117.624 184.508 118.648 183.92C119.688 183.348 120.656 182.903 121.506 182.609C122.347 182.307 123.046 182.108 123.538 182.013C124.03 181.909 124.3 181.87 124.308 181.893V181.909Z" fill="#263238"/>
<path d="M198.321 195.645C198.321 195.645 198.266 195.462 198.202 195.096C198.139 194.691 198.052 194.166 197.94 193.515C197.718 192.139 197.432 190.152 197.099 187.688C196.432 182.768 195.622 175.949 194.94 168.398C194.265 160.847 193.844 153.988 193.63 149.028C193.518 146.548 193.447 144.537 193.423 143.146C193.415 142.486 193.407 141.954 193.399 141.549C193.399 141.183 193.399 140.992 193.415 140.992C193.431 140.992 193.455 141.183 193.479 141.549C193.503 141.954 193.542 142.486 193.582 143.146C193.661 144.577 193.78 146.572 193.923 149.02C194.217 153.98 194.678 160.823 195.352 168.366C196.035 175.909 196.797 182.729 197.393 187.657C197.686 190.089 197.932 192.068 198.107 193.491C198.187 194.15 198.242 194.675 198.29 195.08C198.329 195.446 198.337 195.637 198.329 195.637L198.321 195.645Z" fill="#263238"/>
<path d="M217.327 187.1C217.327 187.1 217.144 186.933 216.866 186.575C216.589 186.226 216.223 185.685 215.811 185.002C214.985 183.626 214.056 181.584 213.492 179.191C212.937 176.791 212.865 174.55 212.992 172.952C213.056 172.149 213.143 171.505 213.238 171.068C213.326 170.631 213.389 170.393 213.421 170.393C213.492 170.401 213.334 171.378 213.286 172.96C213.23 174.542 213.35 176.735 213.889 179.088C214.445 181.441 215.31 183.46 216.065 184.851C216.811 186.249 217.382 187.052 217.327 187.092V187.1Z" fill="#263238"/>
<path d="M123.903 152.382C123.903 152.382 123.8 152.414 123.609 152.446C123.411 152.462 123.125 152.525 122.744 152.525C121.99 152.573 120.894 152.525 119.561 152.279C118.227 152.033 116.687 151.548 115.043 150.864C113.4 150.181 111.654 149.306 109.82 148.392C107.994 147.486 106.207 146.715 104.532 146.175C102.857 145.642 101.293 145.332 99.9676 145.284C97.3002 145.149 95.7283 145.873 95.7124 145.769C95.7124 145.753 95.7997 145.714 95.9823 145.642C96.1729 145.579 96.4348 145.451 96.808 145.364C97.5304 145.149 98.6259 144.974 99.9835 144.998C101.341 145.014 102.945 145.3 104.651 145.817C106.358 146.342 108.168 147.113 110.002 148.027C111.836 148.941 113.567 149.823 115.186 150.514C116.806 151.206 118.314 151.723 119.608 151.993C122.212 152.573 123.895 152.287 123.895 152.382H123.903Z" fill="#FAFAFA"/>
<path d="M133.716 150.442C133.732 150.553 131.644 151.006 129.048 151.451C126.452 151.896 124.324 152.158 124.308 152.047C124.292 151.936 126.38 151.483 128.976 151.038C131.572 150.593 133.7 150.33 133.716 150.442Z" fill="#FAFAFA"/>
<path d="M123.546 167.507C123.546 167.507 123.141 167.714 122.395 168.008C121.641 168.302 120.537 168.699 119.164 169.144C116.417 170.042 112.543 171.092 108.193 171.863C106.017 172.244 103.929 172.522 102.024 172.713C100.127 172.912 98.3802 173.015 96.9274 172.848C95.4746 172.705 94.3314 172.3 93.6169 171.902C93.2597 171.704 92.9977 171.529 92.831 171.394C92.6643 171.258 92.5849 171.187 92.5928 171.171C92.6166 171.139 92.9739 171.417 93.6963 171.759C94.4187 172.101 95.5302 172.459 96.9592 172.554C98.3881 172.673 100.095 172.554 101.984 172.324C103.882 172.117 105.954 171.823 108.121 171.449C112.456 170.686 116.314 169.685 119.077 168.858C120.458 168.453 121.569 168.095 122.339 167.849C123.11 167.602 123.538 167.475 123.546 167.499V167.507Z" fill="#FAFAFA"/>
<path d="M133.493 171.688C133.493 171.799 131.556 171.926 129.166 171.966C126.777 172.006 124.84 171.942 124.84 171.831C124.84 171.72 126.777 171.593 129.166 171.553C131.556 171.513 133.493 171.577 133.493 171.688Z" fill="#FAFAFA"/>
<path d="M92.6401 207.9C92.6401 207.9 92.656 207.749 92.7275 207.479C92.8148 207.161 92.918 206.764 93.045 206.287C93.1165 206.025 93.1959 205.738 93.2832 205.428C93.3864 205.118 93.5134 204.793 93.6484 204.435C93.9262 203.727 94.1882 202.893 94.6328 202.042C94.8392 201.605 95.0535 201.152 95.2758 200.683C95.506 200.214 95.7998 199.753 96.0776 199.261C96.6095 198.259 97.3161 197.281 98.0306 196.224C99.539 194.182 101.397 192.075 103.596 190.136C105.826 188.22 108.168 186.678 110.391 185.462C111.534 184.898 112.598 184.334 113.662 183.944C114.186 183.737 114.686 183.515 115.186 183.348C115.686 183.189 116.163 183.038 116.623 182.895C117.528 182.577 118.386 182.426 119.132 182.251C119.505 182.172 119.846 182.084 120.172 182.029C120.489 181.989 120.783 181.949 121.053 181.909C121.545 181.846 121.95 181.798 122.276 181.758C122.554 181.727 122.704 181.719 122.704 181.735C122.704 181.75 122.561 181.782 122.284 181.846C121.958 181.909 121.561 181.981 121.077 182.076C120.807 182.124 120.521 182.172 120.204 182.227C119.886 182.291 119.545 182.394 119.18 182.482C118.449 182.68 117.6 182.847 116.711 183.181C116.258 183.332 115.79 183.491 115.297 183.658C114.805 183.825 114.321 184.063 113.797 184.27C112.749 184.667 111.701 185.24 110.574 185.804C108.375 187.028 106.073 188.562 103.866 190.454C101.69 192.377 99.8486 194.452 98.3323 196.463C97.6178 197.496 96.9112 198.458 96.3714 199.443C96.0935 199.928 95.7918 200.381 95.5616 200.842C95.3314 201.303 95.1091 201.756 94.8948 202.178C94.4422 203.02 94.1564 203.831 93.8627 204.53C93.7198 204.88 93.5769 205.206 93.4658 205.508C93.3705 205.81 93.2752 206.096 93.1958 206.35C93.0371 206.819 92.9101 207.209 92.8069 207.519C92.7116 207.781 92.656 207.924 92.6401 207.916V207.9Z" fill="#FAFAFA"/>
<path d="M132.453 183.483C132.541 183.555 130.715 184.675 129.19 187.584C128.436 189.023 127.777 190.867 127.364 192.981C126.944 195.096 126.777 197.472 126.61 199.968C126.444 202.464 126.261 204.864 125.801 207.002C125.348 209.14 124.633 211 123.808 212.447C122.982 213.885 122.077 214.903 121.387 215.515C121.037 215.817 120.759 216.039 120.553 216.174C120.354 216.31 120.243 216.381 120.235 216.365C120.148 216.294 121.998 215.205 123.554 212.312C124.324 210.881 124.999 209.045 125.427 206.931C125.864 204.816 126.039 202.44 126.197 199.944C126.364 197.448 126.539 195.048 126.991 192.91C127.436 190.772 128.127 188.904 128.928 187.449C129.738 186.003 130.627 184.969 131.31 184.349C131.651 184.039 131.929 183.817 132.136 183.682C132.334 183.539 132.437 183.475 132.453 183.483Z" fill="#FAFAFA"/>
<path d="M146.005 216.866C145.894 216.866 146.021 210.015 146.299 201.574C146.577 193.125 146.894 186.289 147.005 186.289C147.116 186.289 146.989 193.14 146.711 201.59C146.434 210.031 146.116 216.874 146.005 216.874V216.866Z" fill="#FAFAFA"/>
<path d="M167.551 215.682C167.551 215.682 167.4 215.34 167.202 214.688C167.098 214.362 166.979 213.965 166.876 213.496C166.773 213.027 166.63 212.494 166.543 211.89C166.32 210.698 166.17 209.251 166.122 207.646C166.098 206.04 166.185 204.268 166.455 202.432C166.749 200.596 167.194 198.879 167.702 197.353C168.234 195.835 168.805 194.499 169.377 193.426C169.639 192.878 169.933 192.417 170.179 191.996C170.417 191.574 170.647 191.233 170.845 190.954C171.234 190.398 171.457 190.096 171.481 190.112C171.552 190.16 170.695 191.392 169.647 193.554C169.115 194.635 168.575 195.962 168.075 197.464C167.599 198.974 167.162 200.675 166.876 202.479C166.606 204.292 166.511 206.04 166.519 207.622C166.551 209.212 166.662 210.634 166.852 211.827C167.202 214.203 167.654 215.642 167.575 215.658L167.551 215.682Z" fill="#FAFAFA"/>
<path d="M130.961 127.838C130.929 127.909 129.706 127.353 127.642 126.685C125.586 126.018 122.673 125.302 119.386 125.008C116.099 124.722 113.106 124.913 110.963 125.215C108.819 125.509 107.517 125.835 107.494 125.763C107.494 125.739 107.803 125.636 108.391 125.469C108.978 125.302 109.836 125.111 110.915 124.921C113.059 124.547 116.091 124.301 119.418 124.595C122.744 124.897 125.681 125.668 127.73 126.407C128.754 126.781 129.571 127.114 130.119 127.385C130.667 127.647 130.969 127.806 130.953 127.83L130.961 127.838Z" fill="#FAFAFA"/>
<path d="M193.677 161.251C193.677 161.307 192.55 161.275 190.732 161.204C188.914 161.132 186.405 161.037 183.635 160.965C180.864 160.894 178.356 160.87 176.538 160.846C174.72 160.822 173.592 160.806 173.592 160.743C173.592 160.711 173.87 160.679 174.378 160.647C174.886 160.607 175.625 160.576 176.53 160.552C178.348 160.496 180.864 160.48 183.643 160.552C186.421 160.623 188.93 160.766 190.74 160.909C191.645 160.981 192.383 161.053 192.884 161.116C193.392 161.18 193.669 161.219 193.669 161.251H193.677Z" fill="#FAFAFA"/>
<path d="M209.349 158.287C209.372 158.359 208.356 158.7 206.808 159.464C205.26 160.227 203.212 161.467 201.251 163.215C199.29 164.972 197.821 166.863 196.893 168.318C195.956 169.772 195.503 170.742 195.432 170.71C195.408 170.702 195.503 170.448 195.694 169.995C195.876 169.542 196.202 168.914 196.646 168.159C197.528 166.649 198.988 164.686 200.981 162.905C202.982 161.125 205.093 159.901 206.689 159.201C207.491 158.852 208.15 158.597 208.618 158.47C209.087 158.327 209.349 158.263 209.356 158.295L209.349 158.287Z" fill="#FAFAFA"/>
<path d="M201.616 132.806C201.616 132.909 199.997 132.551 197.583 133.37C196.377 133.752 195.011 134.411 193.511 135.182C192.01 135.945 190.359 136.843 188.478 137.448C184.715 138.68 181.039 138.576 178.53 138.099C177.268 137.861 176.268 137.551 175.593 137.304C174.926 137.05 174.561 136.875 174.577 136.851C174.6 136.772 176.069 137.408 178.578 137.805C181.071 138.203 184.667 138.258 188.35 137.05C190.192 136.462 191.828 135.588 193.336 134.84C194.844 134.085 196.25 133.45 197.488 133.092C198.726 132.718 199.782 132.623 200.505 132.663C200.862 132.663 201.14 132.718 201.33 132.742C201.521 132.774 201.616 132.798 201.608 132.806H201.616Z" fill="#FAFAFA"/>
<path d="M197.655 186.083C197.655 186.083 197.337 186.258 196.734 186.512C196.432 186.639 196.059 186.79 195.614 186.933C195.17 187.076 194.67 187.267 194.106 187.41C192.979 187.744 191.605 188.03 190.065 188.253C188.525 188.451 186.81 188.563 185.016 188.523C183.222 188.459 181.515 188.245 179.991 187.951C178.467 187.641 177.109 187.267 176.006 186.87C175.442 186.695 174.958 186.472 174.521 186.305C174.084 186.138 173.719 185.964 173.426 185.82C172.838 185.534 172.521 185.359 172.528 185.336C172.56 185.264 173.87 185.892 176.093 186.599C177.204 186.957 178.546 187.299 180.054 187.585C181.571 187.847 183.246 188.054 185.024 188.118C186.794 188.165 188.485 188.062 190.018 187.887C191.542 187.688 192.907 187.434 194.035 187.14C196.289 186.568 197.639 186.019 197.663 186.091L197.655 186.083Z" fill="#FAFAFA"/>
<path d="M215.898 209.6C215.898 209.6 215.779 209.521 215.588 209.346C215.406 209.163 215.104 208.917 214.771 208.543C214.08 207.828 213.175 206.699 212.262 205.173C210.404 202.137 208.825 197.312 208.721 191.86C208.626 186.415 209.69 181.567 210.523 178.141C210.952 176.424 211.333 175.041 211.611 174.087C211.746 173.65 211.849 173.293 211.944 172.999C212.024 172.752 212.071 172.625 212.087 172.625C212.103 172.625 212.079 172.768 212.024 173.022C211.952 173.324 211.873 173.69 211.77 174.135C211.532 175.161 211.206 176.536 210.809 178.213C210.047 181.654 209.039 186.471 209.134 191.86C209.237 197.241 210.746 202.002 212.508 205.03C213.381 206.556 214.239 207.701 214.89 208.44C215.533 209.187 215.922 209.577 215.89 209.6H215.898Z" fill="#FAFAFA"/>
<path d="M244.787 182.61C244.724 182.705 243.422 181.266 240.588 180.249C239.182 179.732 237.452 179.303 235.507 178.93C233.562 178.532 231.394 178.175 229.18 177.467C224.75 176.052 221.273 173.517 219.121 171.411C218.034 170.353 217.255 169.408 216.747 168.732C216.485 168.398 216.311 168.12 216.184 167.937C216.065 167.754 216.001 167.651 216.017 167.643C216.041 167.627 216.335 167.985 216.874 168.629C217.414 169.265 218.232 170.171 219.328 171.196C221.503 173.231 224.956 175.679 229.315 177.07C231.482 177.761 233.641 178.135 235.586 178.548C237.539 178.946 239.286 179.415 240.699 179.971C242.112 180.527 243.168 181.187 243.827 181.72C244.176 181.966 244.398 182.212 244.565 182.363C244.724 182.514 244.803 182.602 244.795 182.618L244.787 182.61Z" fill="#FAFAFA"/>
<path d="M253.869 156.085C253.869 156.085 253.544 155.839 253.02 155.346C252.758 155.1 252.44 154.798 252.043 154.464C251.654 154.13 251.225 153.733 250.709 153.343C249.709 152.525 248.463 151.634 247.026 150.728C245.573 149.846 243.922 148.956 242.128 148.177C240.318 147.414 238.539 146.834 236.896 146.389C235.245 145.975 233.744 145.681 232.466 145.522C231.831 145.419 231.251 145.387 230.735 145.331C230.227 145.276 229.783 145.252 229.426 145.236C228.703 145.196 228.306 145.157 228.306 145.133C228.306 145.101 228.703 145.085 229.433 145.077C229.799 145.069 230.243 145.077 230.751 145.109C231.267 145.141 231.855 145.157 232.498 145.244C233.792 145.371 235.316 145.633 236.991 146.031C238.658 146.452 240.46 147.032 242.286 147.811C244.104 148.598 245.772 149.512 247.224 150.418C248.669 151.348 249.916 152.278 250.892 153.129C251.4 153.534 251.813 153.947 252.194 154.305C252.575 154.655 252.885 154.973 253.131 155.243C253.623 155.775 253.885 156.078 253.869 156.093V156.085Z" fill="#FAFAFA"/>
<path d="M184.405 119.603C184.429 119.651 183.857 119.953 182.896 120.326C181.936 120.708 180.578 121.161 179.046 121.519C177.506 121.876 176.093 122.075 175.061 122.154C174.029 122.234 173.394 122.226 173.386 122.17C173.378 122.043 175.91 121.829 178.951 121.113C181.991 120.414 184.357 119.484 184.405 119.595V119.603Z" fill="#FAFAFA"/>
<path d="M212.564 231.555C213.008 233.097 211.722 234.576 210.134 234.361C209.277 234.242 208.57 233.638 208.316 232.803L207.649 230.3L207.745 230.331C208.165 231.834 206.721 233.209 205.173 233.058C204.125 233.034 203.228 231.54 202.934 230.737C201.203 230.943 199.568 229.926 198.901 228.797L194.241 221.517L185.611 215.198L190.827 196.527L209.404 208.561C210.134 209.125 210.245 209.372 211.404 210.445L223.392 221.477C222.035 222.296 220.875 222.232 218.994 221.477C217.112 220.722 208.824 215.126 208.824 215.126L212.556 231.54" fill="#FFBE9D"/>
<path d="M196.678 216.191C196.678 216.191 196.892 216.287 197.234 216.517C197.424 216.652 197.631 216.795 197.845 216.947C198.083 217.105 198.369 217.328 198.615 217.614C198.861 217.9 199.091 218.266 199.242 218.695C199.385 219.108 199.536 219.546 199.695 219.999C200.012 220.929 200.354 221.938 200.711 222.987C201.417 225.109 202.037 227.041 202.465 228.448C202.894 229.855 203.132 230.729 203.077 230.745C203.021 230.761 202.688 229.918 202.187 228.535C201.687 227.152 201.028 225.245 200.314 223.122C199.965 222.065 199.639 221.064 199.33 220.126C199.187 219.673 199.044 219.236 198.909 218.814C198.782 218.425 198.591 218.083 198.377 217.805C198.163 217.519 197.924 217.32 197.694 217.137C197.488 216.962 197.305 216.803 197.123 216.652C196.813 216.382 196.654 216.223 196.67 216.199L196.678 216.191Z" fill="#EB996E"/>
<path d="M207.848 230.698C207.848 230.698 207.729 230.428 207.586 229.927C207.419 229.339 207.221 228.623 206.991 227.797C206.49 226.001 205.808 223.513 204.942 220.802C204.069 218.1 203.172 215.668 202.084 214.181C201.552 213.434 200.997 212.934 200.56 212.663C200.123 212.393 199.846 212.314 199.861 212.274C199.861 212.258 199.941 212.274 200.076 212.306C200.211 212.329 200.401 212.409 200.647 212.528C201.124 212.767 201.743 213.259 202.323 214.014C203.505 215.525 204.458 217.973 205.339 220.683C206.205 223.401 206.848 225.905 207.276 227.725C207.491 228.639 207.649 229.379 207.745 229.887C207.84 230.404 207.88 230.69 207.856 230.698H207.848Z" fill="#EB996E"/>
<path d="M212.643 231.825C212.643 231.825 212.5 231.539 212.317 230.991C212.119 230.355 211.873 229.584 211.579 228.67C210.976 226.706 210.166 223.988 209.301 220.984C208.467 218.019 207.705 215.34 207.125 213.274C206.816 212.312 206.316 211.652 205.855 211.334C205.403 211.001 205.077 210.961 205.085 210.921C205.085 210.913 205.172 210.905 205.323 210.937C205.474 210.969 205.696 211.04 205.95 211.199C206.466 211.493 207.054 212.185 207.403 213.178C208.054 215.142 208.824 217.86 209.705 220.872C210.571 223.885 211.333 226.611 211.865 228.598C212.103 229.52 212.309 230.307 212.476 230.951C212.611 231.507 212.675 231.825 212.643 231.833V231.825Z" fill="#EB996E"/>
<path d="M325.454 59.4674C325.454 61.0015 326.7 62.2494 328.232 62.2494C329.764 62.2494 331.011 61.0015 331.011 59.4674C331.011 57.9334 329.764 56.6855 328.232 56.6855C326.7 56.6855 325.454 57.9334 325.454 59.4674Z" fill="#455A64"/>
<path d="M317.11 62.2494C318.644 62.2494 319.888 61.0039 319.888 59.4674C319.888 57.931 318.644 56.6855 317.11 56.6855C315.575 56.6855 314.331 57.931 314.331 59.4674C314.331 61.0039 315.575 62.2494 317.11 62.2494Z" fill="#455A64"/>
<path d="M303.241 58.0769C302.471 59.4042 302.931 61.1131 304.257 61.8761C305.583 62.6471 307.289 62.1861 308.052 60.8588C308.822 59.5314 308.361 57.8225 307.035 57.0595C305.71 56.2885 304.003 56.7495 303.241 58.0769Z" fill="#455A64"/>
<path d="M316.935 26.975C316.935 26.975 316.744 26.9591 316.371 26.9671C315.966 26.975 315.419 26.9909 314.72 27.0148C314.355 27.0307 313.95 27.0307 313.505 27.0704C313.061 27.134 312.576 27.1976 312.053 27.2771C311.521 27.3565 310.957 27.436 310.354 27.5235C309.758 27.6745 309.123 27.8255 308.456 27.9924C305.789 28.676 302.558 29.8523 299.247 32.0142C295.945 34.1364 292.515 37.1727 289.729 41.2978C286.998 45.431 284.886 50.6212 284.33 56.4632C284.275 57.9257 284.1 59.412 284.243 60.9222C284.298 61.6773 284.283 62.4403 284.394 63.2033C284.505 63.9664 284.624 64.7294 284.735 65.5004C285.354 68.5446 286.259 71.6683 287.831 74.5694C289.363 77.4785 291.34 80.2524 293.746 82.7164C296.207 85.1327 299.073 87.231 302.272 88.8445C305.455 90.4739 308.988 91.6026 312.664 92.0398C313.577 92.2226 314.506 92.2226 315.434 92.2782C316.363 92.3418 317.3 92.3736 318.237 92.3259C320.11 92.2464 321.992 92.0159 323.85 91.6185C327.882 90.7601 331.685 89.1148 335.019 86.9131L334.678 86.9449C338.552 88.5028 342.347 90.0288 346.054 91.5152L346.729 91.7854L346.539 91.086C345.388 86.9052 344.276 82.8436 343.196 78.9092L343.141 79.2112C346.332 74.9589 348.373 70.1104 349.214 65.2937C349.635 62.8854 349.817 60.485 349.659 58.1641C349.611 57.0037 349.555 55.8512 349.333 54.7384C349.246 54.182 349.158 53.6256 349.071 53.0693C348.968 52.5208 348.801 51.9883 348.674 51.4558C346.475 42.8796 341.204 36.5527 335.98 32.9283C333.368 31.0843 330.788 29.7649 328.422 28.9382C327.835 28.7236 327.263 28.5249 326.723 28.3262C326.16 28.1832 325.628 28.048 325.112 27.9129C324.596 27.7857 324.104 27.6665 323.635 27.5473C323.159 27.4599 322.706 27.4042 322.278 27.3406C321.42 27.2294 320.658 27.0863 319.999 27.0466C319.348 27.0227 318.793 27.0068 318.324 26.9909C317.903 26.983 317.562 26.975 317.3 26.9671C317.07 26.9671 316.951 26.9671 316.951 26.983C316.951 26.9989 317.07 27.0068 317.292 27.0307C317.554 27.0545 317.888 27.0783 318.308 27.1101C318.769 27.1419 319.324 27.1817 319.968 27.2214C320.626 27.2691 321.373 27.436 322.222 27.5632C325.572 28.1752 330.59 29.5185 335.718 33.2701C340.839 36.8945 345.975 43.1657 348.095 51.5909C348.222 52.1155 348.38 52.6401 348.476 53.1726C348.555 53.7131 348.642 54.2615 348.722 54.8099C348.928 55.9068 348.976 57.0275 349.023 58.1721C349.174 60.4532 348.984 62.8059 348.563 65.1586C347.722 69.8799 345.713 74.6171 342.577 78.7741L342.474 78.9092L342.522 79.0761C343.593 83.0105 344.705 87.08 345.84 91.2608L346.324 90.8316C342.617 89.3373 338.822 87.8033 334.948 86.2454L334.773 86.1739L334.615 86.2772C331.352 88.4233 327.636 90.0368 323.691 90.8714C321.873 91.2608 320.039 91.4913 318.205 91.5629C317.292 91.6026 316.379 91.5708 315.466 91.5152C314.561 91.4595 313.648 91.4595 312.759 91.2847C309.163 90.8634 305.717 89.7665 302.597 88.1769C299.47 86.6031 296.659 84.5525 294.246 82.1918C291.88 79.7835 289.943 77.0731 288.435 74.2276C286.894 71.3901 285.997 68.3379 285.378 65.3573C285.259 64.6022 285.148 63.8551 285.029 63.108C284.918 62.3608 284.934 61.6137 284.878 60.8745C284.735 59.3961 284.902 57.9336 284.949 56.5029C285.473 50.7722 287.514 45.6615 290.173 41.576C292.888 37.4986 296.246 34.4782 299.485 32.3481C302.724 30.1861 305.908 28.9859 308.544 28.2626C309.202 28.0878 309.83 27.9209 310.417 27.7619C311.013 27.6665 311.576 27.5711 312.1 27.4837C312.616 27.3963 313.1 27.3168 313.545 27.2453C313.99 27.1976 314.394 27.1817 314.752 27.1578C315.442 27.1101 315.99 27.0704 316.395 27.0386C316.768 27.0068 316.959 26.983 316.959 26.975H316.935Z" fill="#455A64"/>
</svg>
