<svg width="27" height="27" viewBox="0 0 27 27" fill="none" xmlns="http://www.w3.org/2000/svg">
<path d="M26.3077 21.8521L5.14774 0.692133C4.22489 -0.230711 2.72873 -0.230711 1.80733 0.692133L0.692133 1.8056C-0.230711 2.72873 -0.230711 4.2249 0.692133 5.1463L21.8521 26.3062C22.7752 27.2291 24.2714 27.2291 25.1928 26.3062L26.3062 25.1928C27.2308 24.2714 27.2308 22.7749 26.3077 21.8521Z" fill="#8D0000"/>
<path d="M21.8521 0.691917L0.692133 21.8519C-0.230711 22.7747 -0.230711 24.2712 0.692133 25.1926L1.8056 26.306C2.72873 27.2289 4.22489 27.2289 5.1463 26.306L26.3077 5.14752C27.2308 4.22468 27.2308 2.72852 26.3077 1.80712L25.1942 0.693647C24.2714 -0.230927 22.7752 -0.230927 21.8521 0.691917Z" fill="#8D0000"/>
</svg>
